<?xml version="1.0" encoding="UTF-8"?>
<svg version="1.1" xmlns="http://www.w3.org/2000/svg" width="120" height="76">
<path d="M0 0 C39.6 0 79.2 0 120 0 C120 25.08 120 50.16 120 76 C80.4 76 40.8 76 0 76 C0 50.92 0 25.84 0 0 Z " fill="#F9F3D7" transform="translate(0,0)"/>
<path d="M0 0 C0.81339844 -0.00773438 1.62679687 -0.01546875 2.46484375 -0.0234375 C5.0625 0.375 5.0625 0.375 7.69506836 1.87011719 C11.82620118 3.71629298 15.07519089 3.83252165 19.5390625 3.8515625 C20.34556244 3.86714203 21.15206238 3.88272156 21.98300171 3.89877319 C24.55115732 3.94603834 27.11904987 3.97391456 29.6875 4 C32.2343303 4.03686138 34.78102427 4.07791519 37.32772827 4.12265015 C38.90611782 4.14920681 40.48460263 4.17082963 42.06314087 4.18618774 C48.46935079 4.27496565 54.62424689 4.83847891 61.0625 5.375 C61.0625 13.955 61.0625 22.535 61.0625 31.375 C56.29425781 31.37886719 56.29425781 31.37886719 51.4296875 31.3828125 C48.34167368 31.40564526 45.25392436 31.43866092 42.16601562 31.47265625 C40.02447778 31.4907939 37.88282309 31.49838882 35.74121094 31.49511719 C32.6572875 31.49225375 29.57577628 31.52763513 26.4921875 31.5703125 C25.53883514 31.56121857 24.58548279 31.55212463 23.60324097 31.54275513 C18.85094111 31.64602324 16.00128593 31.865588 12.59814453 35.36279297 C11.76138184 36.35682129 10.92461914 37.35084961 10.0625 38.375 C5.15636785 40.01037738 0.18218802 39.87613348 -4.9375 39.375 C-8.0916605 37.77025167 -10.040166 36.41409349 -12.32759094 33.76530457 C-14.3721479 31.99964156 -15.45828469 31.98279603 -18.13354492 31.94262695 C-18.97418991 31.92283279 -19.8148349 31.90303864 -20.68095398 31.88264465 C-21.58416885 31.87625473 -22.48738373 31.86986481 -23.41796875 31.86328125 C-24.34595779 31.84533005 -25.27394684 31.82737885 -26.23005676 31.80888367 C-29.19499157 31.75468709 -32.15976455 31.720855 -35.125 31.6875 C-37.13478819 31.65433518 -39.144555 31.61984631 -41.15429688 31.58398438 C-46.08205575 31.49646119 -51.00907143 31.43647287 -55.9375 31.375 C-55.9375 22.465 -55.9375 13.555 -55.9375 4.375 C-52.67488281 4.33761719 -49.41226563 4.30023438 -46.05078125 4.26171875 C-42.88673239 4.21549171 -39.72280127 4.16426224 -36.55883789 4.11254883 C-34.36197073 4.07931945 -32.1650186 4.05128134 -29.96801758 4.02856445 C-26.80773757 3.99498246 -23.64823479 3.94266366 -20.48828125 3.88671875 C-19.50789383 3.88032883 -18.52750641 3.8739389 -17.51741028 3.86735535 C-10.87713137 3.72457669 -6.252845 -0.05926867 0 0 Z " fill="#638B66" transform="translate(55.9375,9.625)"/>
<path d="M0 0 C39.6 0 79.2 0 120 0 C120 10.56 120 21.12 120 32 C119.01 32.66 118.02 33.32 117 34 C117 27.73 117 21.46 117 15 C114.77515869 14.97812622 114.77515869 14.97812622 112.50537109 14.95581055 C106.99243288 14.89775551 101.47990001 14.82052221 95.96728516 14.73754883 C93.58323759 14.70433354 91.19911203 14.67629108 88.81494141 14.65356445 C85.38410261 14.61995682 81.95397637 14.56763593 78.5234375 14.51171875 C77.46071625 14.50532883 76.397995 14.4989389 75.30307007 14.49235535 C69.72785662 14.38206314 65.87708892 13.98144544 61 11 C58.43425301 10.53511234 58.43425301 10.53511234 55.9375 10.625 C54.71353516 10.61339844 54.71353516 10.61339844 53.46484375 10.6015625 C50.92078791 10.81566757 50.92078791 10.81566757 49.00537109 12.5065918 C44.53444322 14.72825433 40.37270741 14.37072841 35.44921875 14.29296875 C34.43527542 14.28872391 33.42133209 14.28447906 32.37666321 14.28010559 C29.14666901 14.26334859 25.91730478 14.22570122 22.6875 14.1875 C20.49414965 14.17244934 18.3007895 14.1587616 16.10742188 14.14648438 C10.7380395 14.1134547 5.36912647 14.06169228 0 14 C0 9.38 0 4.76 0 0 Z " fill="#F9F3D8" transform="translate(0,0)"/>
<path d="M0 0 C2.10409639 -0.02701408 4.20829178 -0.04640223 6.3125 -0.0625 C7.48425781 -0.07410156 8.65601562 -0.08570313 9.86328125 -0.09765625 C13 0 13 0 16 1 C18.2825699 1.15145099 20.56887706 1.24886979 22.85546875 1.31640625 C23.51710526 1.33718735 24.17874176 1.35796844 24.86042786 1.37937927 C26.96934852 1.44464727 29.07839135 1.50365344 31.1875 1.5625 C32.61915315 1.60570689 34.05079404 1.64932188 35.48242188 1.69335938 C38.98815796 1.80107185 42.49398975 1.90031308 46 2 C46 9.26 46 16.52 46 24 C32.14 24 18.28 24 4 24 C4 19.05 4 14.1 4 9 C2.27880265 4.28610296 2.27880265 4.28610296 0 0 Z " fill="#60685B" transform="translate(69,15)"/>
<path d="M0 0 C13.86 0 27.72 0 42 0 C41.34 1.98 40.68 3.96 40 6 C40 10.95 40 15.9 40 21 C26.8 21 13.6 21 0 21 C0 14.07 0 7.14 0 0 Z " fill="#EBEACD" transform="translate(0,17)"/>
<path d="M0 0 C7.33332988 -0.37931017 7.33332988 -0.37931017 10.61621094 1.48852539 C14.75672952 3.33801677 18.00341379 3.45748207 22.4765625 3.4765625 C23.28306244 3.49214203 24.08956238 3.50772156 24.92050171 3.52377319 C27.48865732 3.57103834 30.05654987 3.59891456 32.625 3.625 C35.1718303 3.66186138 37.71852427 3.70291519 40.26522827 3.74765015 C41.84361782 3.77420681 43.42210263 3.79582963 45.00064087 3.81118774 C51.40685079 3.89996565 57.56174689 4.46347891 64 5 C64 13.58 64 22.16 64 31 C59.23175781 31.00386719 59.23175781 31.00386719 54.3671875 31.0078125 C51.27917368 31.03064526 48.19142436 31.06366092 45.10351562 31.09765625 C42.96197778 31.1157939 40.82032309 31.12338882 38.67871094 31.12011719 C35.5947875 31.11725375 32.51327628 31.15263513 29.4296875 31.1953125 C27.99965897 31.1816716 27.99965897 31.1816716 26.54074097 31.16775513 C21.78844111 31.27102324 18.93878593 31.490588 15.53564453 34.98779297 C14.69888184 35.98182129 13.86211914 36.97584961 13 38 C9.83990467 39.05336511 7.4446864 39.20032888 4.125 39.25 C2.58199219 39.28867188 2.58199219 39.28867188 1.0078125 39.328125 C-2.3748189 38.95911067 -4.23935854 37.93550508 -7 36 C-3.34606463 34.73176515 -0.50929974 35.24284679 3.25 35.9375 C4.32765625 36.13214844 5.4053125 36.32679687 6.515625 36.52734375 C7.74539062 36.76130859 7.74539062 36.76130859 9 37 C9.33 33.37 9.66 29.74 10 26 C8.35 25.67 6.7 25.34 5 25 C4.73654382 20.65297305 5.7206927 17.13893538 7 13 C7.12375 12.2575 7.2475 11.515 7.375 10.75 C8.25957541 8.27318887 9.83909773 7.39413049 12 6 C11.34 5.67 10.68 5.34 10 5 C9.34 4.34 8.68 3.68 8 3 C5.34462628 2.43479997 2.70855287 2.26211802 0 2 C0 1.34 0 0.68 0 0 Z M16 5 C16.28875 5.47566406 16.5775 5.95132812 16.875 6.44140625 C21.25261784 14.69503989 20 18.2881796 20 29 C33.86 29 47.72 29 62 29 C62 21.74 62 14.48 62 7 C59.86917969 6.93941406 57.73835938 6.87882812 55.54296875 6.81640625 C53.47774821 6.75458585 51.41258082 6.69121103 49.34741211 6.62768555 C47.91288997 6.58439207 46.47831816 6.54271301 45.04370117 6.50268555 C42.9808048 6.44484733 40.91815717 6.38119247 38.85546875 6.31640625 C37.61434326 6.27974854 36.37321777 6.24309082 35.09448242 6.20532227 C32 6 32 6 29 5 C26.77181559 4.93062938 24.54165476 4.91542916 22.3125 4.9375 C21.13300781 4.94652344 19.95351562 4.95554687 18.73828125 4.96484375 C17.38283203 4.98224609 17.38283203 4.98224609 16 5 Z " fill="#899681" transform="translate(53,10)"/>
<path d="M0 0 C6.38087649 -0.36812749 6.38087649 -0.36812749 9.3125 1.375 C10.55406966 2.5705856 11.78120549 3.78120549 13 5 C12.030625 5.309375 11.06125 5.61875 10.0625 5.9375 C6.8501056 7.61501711 6.8501056 7.61501711 6.4140625 10.16796875 C6.26467515 11.78804883 6.16072167 13.413048 6.10546875 15.0390625 C6 17 6 17 5 18 C4.95936168 19.66617115 4.957279 21.33388095 5 23 C6.32 23.33 7.64 23.66 9 24 C9.07622858 27.96388638 8.9681648 31.1273408 8 35 C5.03 35 2.06 35 -1 35 C-0.690625 34.2575 -0.38125 33.515 -0.0625 32.75 C0.8094925 30.49307824 1.47667007 28.3549847 2 26 C-2.04535146 23.02200698 -2.04535146 23.02200698 -6.75 21.5 C-7.4925 21.335 -8.235 21.17 -9 21 C-10.3125 18.9375 -10.3125 18.9375 -11 17 C-10.34 17 -9.68 17 -9 17 C-8.67 17.33 -8.34 17.66 -8 18 C-7.7525 17.21625 -7.505 16.4325 -7.25 15.625 C-5.84610901 12.67682892 -4.99324263 12.0975223 -2 11 C-2.33 9.02 -2.66 7.04 -3 5 C-2.401875 5.226875 -1.80375 5.45375 -1.1875 5.6875 C-0.465625 5.790625 0.25625 5.89375 1 6 C2.64594139 4.60411246 2.64594139 4.60411246 4 3 C4.66 3 5.32 3 6 3 C6 2.34 6 1.68 6 1 C4.02 1 2.04 1 0 1 C0 0.67 0 0.34 0 0 Z " fill="#CCE4C7" transform="translate(54,12)"/>
<path d="M0 0 C2.10409639 -0.02701408 4.20829178 -0.04640223 6.3125 -0.0625 C7.48425781 -0.07410156 8.65601562 -0.08570313 9.86328125 -0.09765625 C13 0 13 0 16 1 C18.2825699 1.15145099 20.56887706 1.24886979 22.85546875 1.31640625 C23.51710526 1.33718735 24.17874176 1.35796844 24.86042786 1.37937927 C26.96934852 1.44464727 29.07839135 1.50365344 31.1875 1.5625 C32.61915315 1.60570689 34.05079404 1.64932188 35.48242188 1.69335938 C38.98815796 1.80107185 42.49398975 1.90031308 46 2 C46 9.26 46 16.52 46 24 C32.14 24 18.28 24 4 24 C4 19.05 4 14.1 4 9 C2.27880265 4.28610296 2.27880265 4.28610296 0 0 Z M6 3 C6.33 3.66 6.66 4.32 7 5 C9.32156597 5.40729228 11.6568787 5.74438677 14 6 C13.34 7.98 12.68 9.96 12 12 C10 10 10 10 9 7 C8.01 7.495 8.01 7.495 7 8 C6.97303635 9.79158489 6.95362083 11.58328473 6.9375 13.375 C6.92589844 14.37273438 6.91429688 15.37046875 6.90234375 16.3984375 C6.81993398 18.98432453 6.81993398 18.98432453 8 21 C8.66 21 9.32 21 10 21 C10 21.66 10 22.32 10 23 C13.16648655 23.08820927 16.33265092 23.1407905 19.5 23.1875 C20.386875 23.21263672 21.27375 23.23777344 22.1875 23.26367188 C28.22164744 23.33022497 32.46085163 22.38086202 38 20 C39.98956785 19.60919203 41.98806977 19.25149128 44 19 C43.979375 18.05125 43.95875 17.1025 43.9375 16.125 C44 13 44 13 45 11 C45.0689472 9.62657169 45.08467708 8.24997898 45.0625 6.875 C45.041875 5.59625 45.02125 4.3175 45 3 C43.35 3 41.7 3 40 3 C40 3.99 40 4.98 40 6 C38.68 5.34 37.36 4.68 36 4 C36 3.67 36 3.34 36 3 C26.1 3 16.2 3 6 3 Z " fill="#566053" transform="translate(69,15)"/>
<path d="M0 0 C5.28 0 10.56 0 16 0 C15.34 1.98 14.68 3.96 14 6 C13.73004677 7.95079406 13.51871703 9.9108672 13.375 11.875 C13.30023438 12.84179688 13.22546875 13.80859375 13.1484375 14.8046875 C13.09945312 15.52914062 13.05046875 16.25359375 13 17 C11.35 17 9.7 17 8 17 C8 16.34 8 15.68 8 15 C7.505 15.33 7.01 15.66 6.5 16 C2.90909106 17.43636358 -0.14456127 17.12851462 -4 17 C-4 12.71 -4 8.42 -4 4 C-0.535 3.505 -0.535 3.505 3 3 C3 2.34 3 1.68 3 1 C2.01 0.67 1.02 0.34 0 0 Z " fill="#E4E3C2" transform="translate(26,17)"/>
<path d="M0 0 C2.0625 0.4375 2.0625 0.4375 4 1 C4 1.66 4 2.32 4 3 C4.66 3 5.32 3 6 3 C6.33 2.34 6.66 1.68 7 1 C7.0270043 2.45823212 7.04639787 3.91660675 7.0625 5.375 C7.07410156 6.18710937 7.08570312 6.99921875 7.09765625 7.8359375 C7 10 7 10 6 12 C9.96 11.34 13.92 10.68 18 10 C18 10.66 18 11.32 18 12 C19.65 12 21.3 12 23 12 C23.495 13.98 23.495 13.98 24 16 C10.8 16 -2.4 16 -16 16 C-16 14.68 -16 13.36 -16 12 C-14.68 12 -13.36 12 -12 12 C-12.33 11.01 -12.66 10.02 -13 9 C-11.35 8.67 -9.7 8.34 -8 8 C-8 9.32 -8 10.64 -8 12 C-6.948125 11.835 -5.89625 11.67 -4.8125 11.5 C-1.79531204 11.10430322 0.97093972 10.90821029 4 11 C3.360625 10.855625 2.72125 10.71125 2.0625 10.5625 C0 10 0 10 -1 9 C-1.1328125 7.1875 -1.1328125 7.1875 -1.125 5 C-1.12757812 4.278125 -1.13015625 3.55625 -1.1328125 2.8125 C-1 1 -1 1 0 0 Z " fill="#F3EECE" transform="translate(16,22)"/>
<path d="M0 0 C2 3 2 3 2 7 C2.66 7 3.32 7 4 7 C4 9.64 4 12.28 4 15 C3.01 15.33 2.02 15.66 1 16 C0.67 16.99 0.34 17.98 0 19 C-0.66 19 -1.32 19 -2 19 C-2.33 19.99 -2.66 20.98 -3 22 C-3.66 21.67 -4.32 21.34 -5 21 C-5 20.01 -5 19.02 -5 18 C-5.804375 18.020625 -6.60875 18.04125 -7.4375 18.0625 C-10 18 -10 18 -11 17 C-11.38137189 12.6777852 -10.26973525 9.10796698 -9 5 C-8.87625 4.236875 -8.7525 3.47375 -8.625 2.6875 C-8 1 -8 1 -6.1875 -0.3125 C-3.60890909 -1.12291429 -2.46955061 -1.0701386 0 0 Z " fill="#A1C14C" transform="translate(69,18)"/>
<path d="M0 0 C5.57074911 -0.2881422 9.26478981 -0.29405926 14 3 C18.87439599 8.4794147 21.14322689 12.56342961 21.125 20 C21.12886719 21.5778125 21.12886719 21.5778125 21.1328125 23.1875 C21 26 21 26 20 29 C23.96 29 27.92 29 32 29 C32 29.33 32 29.66 32 30 C31.13117188 30.07476562 30.26234375 30.14953125 29.3671875 30.2265625 C21.66481592 31.10535657 17.89173395 31.94969749 13 38 C9.83990467 39.05336511 7.4446864 39.20032888 4.125 39.25 C2.58199219 39.28867188 2.58199219 39.28867188 1.0078125 39.328125 C-2.3748189 38.95911067 -4.23935854 37.93550508 -7 36 C-3.34606463 34.73176515 -0.50929974 35.24284679 3.25 35.9375 C4.32765625 36.13214844 5.4053125 36.32679687 6.515625 36.52734375 C7.74539062 36.76130859 7.74539062 36.76130859 9 37 C9.33 33.37 9.66 29.74 10 26 C10.99 26.99 11.98 27.98 13 29 C13.61875 28.195625 14.2375 27.39125 14.875 26.5625 C17 24 17 24 19 23 C19.46523063 21.10466658 19.46523063 21.10466658 19.625 18.9375 C19.74875 17.638125 19.8725 16.33875 20 15 C19.34 15 18.68 15 18 15 C17.566875 13.88625 17.13375 12.7725 16.6875 11.625 C14.89672416 7.77814819 13.69771778 6.84885889 10 5 C9.34 4.34 8.68 3.68 8 3 C5.34462628 2.43479997 2.70855287 2.26211802 0 2 C0 1.34 0 0.68 0 0 Z " fill="#729A80" transform="translate(53,10)"/>
<path d="M0 0 C4.62 0 9.24 0 14 0 C14 0.99 14 1.98 14 3 C13.01 3 12.02 3 11 3 C11 3.66 11 4.32 11 5 C10.34 5 9.68 5 9 5 C8.67 7.64 8.34 10.28 8 13 C8.27714844 12.43410156 8.55429688 11.86820313 8.83984375 11.28515625 C9.20207031 10.55167969 9.56429687 9.81820313 9.9375 9.0625 C10.29714844 8.33160156 10.65679687 7.60070312 11.02734375 6.84765625 C12 5 12 5 13 4 C15.4375 3.75 15.4375 3.75 18 4 C20 7 20 7 19.75 10.5625 C19 14 19 14 17 16 C14.5 15.625 14.5 15.625 12 15 C11.34 15 10.68 15 10 15 C10.33 15.33 10.66 15.66 11 16 C11 16.99 11 17.98 11 19 C9.02 19 7.04 19 5 19 C4.67 18.34 4.34 17.68 4 17 C3.01 16.67 2.02 16.34 1 16 C1 12.04 1 8.08 1 4 C1.66 4 2.32 4 3 4 C3.66 5.65 4.32 7.3 5 9 C7.10232344 6.1315587 7.10232344 6.1315587 8 3 C6.865625 2.87625 5.73125 2.7525 4.5625 2.625 C3.386875 2.41875 2.21125 2.2125 1 2 C0.67 1.34 0.34 0.68 0 0 Z " fill="#9F9B7E" transform="translate(75,18)"/>
<path d="M0 0 C2.4375 0.375 2.4375 0.375 5 1 C5.33 1.66 5.66 2.32 6 3 C8.97 3 11.94 3 15 3 C15 5.31 15 7.62 15 10 C11.44394014 10 7.98174581 9.82458871 4.4375 9.5625 C3.30183594 9.48128906 2.16617188 9.40007813 0.99609375 9.31640625 C-2 9 -2 9 -5 8 C-5 7.01 -5 6.02 -5 5 C-5.66 5 -6.32 5 -7 5 C-7 5.99 -7 6.98 -7 8 C-9.97 8 -12.94 8 -16 8 C-16 8.99 -16 9.98 -16 11 C-16.66 11 -17.32 11 -18 11 C-18 8.36 -18 5.72 -18 3 C-12 3 -6 3 0 3 C0 2.01 0 1.02 0 0 Z " fill="#B0AC8B" transform="translate(32,50)"/>
<path d="M0 0 C1.51400391 0.01740234 1.51400391 0.01740234 3.05859375 0.03515625 C4.07050781 0.04417969 5.08242187 0.05320312 6.125 0.0625 C7.29869141 0.07990234 7.29869141 0.07990234 8.49609375 0.09765625 C9.16696495 1.72092495 9.83266404 3.34633203 10.49609375 4.97265625 C11.05296875 6.33003906 11.05296875 6.33003906 11.62109375 7.71484375 C12.49609375 10.09765625 12.49609375 10.09765625 12.49609375 12.09765625 C11.50609375 12.09765625 10.51609375 12.09765625 9.49609375 12.09765625 C9.35171875 11.31390625 9.20734375 10.53015625 9.05859375 9.72265625 C8.6181045 7.13344607 8.6181045 7.13344607 7.49609375 5.09765625 C6.83609375 7.40765625 6.17609375 9.71765625 5.49609375 12.09765625 C4.83609375 12.09765625 4.17609375 12.09765625 3.49609375 12.09765625 C3.49609375 10.77765625 3.49609375 9.45765625 3.49609375 8.09765625 C3.16609375 9.08765625 2.83609375 10.07765625 2.49609375 11.09765625 C0.12109375 11.28515625 0.12109375 11.28515625 -2.50390625 11.09765625 C-4.50390625 8.09765625 -4.50390625 8.09765625 -4.19140625 4.47265625 C-3.3065796 0.12896176 -3.3065796 0.12896176 0 0 Z " fill="#97987D" transform="translate(100.50390625,21.90234375)"/>
<path d="M0 0 C14.85 0 29.7 0 45 0 C42 3 42 3 40.04475403 3.36076355 C38.93555855 3.3507708 38.93555855 3.3507708 37.80395508 3.34057617 C36.96331009 3.34034958 36.1226651 3.34012299 35.25654602 3.33988953 C34.35333115 3.32440567 33.45011627 3.30892181 32.51953125 3.29296875 C31.59154221 3.28872391 30.66355316 3.28447906 29.70744324 3.28010559 C26.74216757 3.26330662 23.7775704 3.22565216 20.8125 3.1875 C18.80274419 3.17245474 16.79297773 3.15876606 14.78320312 3.14648438 C9.85520714 3.11339908 4.92771862 3.06160833 0 3 C0 2.01 0 1.02 0 0 Z " fill="#89A78C" transform="translate(0,14)"/>
<path d="M0 0 C0.7425 0.350625 1.485 0.70125 2.25 1.0625 C4.85669103 2.25086153 4.85669103 2.25086153 6.9375 1.40625 C9 1 9 1 10.921875 1.99609375 C11.52515625 2.47175781 12.1284375 2.94742188 12.75 3.4375 C13.67039062 4.14712891 13.67039062 4.14712891 14.609375 4.87109375 C15.06828125 5.24363281 15.5271875 5.61617187 16 6 C14.87548273 8.9719385 13.77706209 11.33440687 12 14 C9.22462868 13.91837143 7.47787797 13.41385605 5.3671875 11.5859375 C2.00548561 7.8994335 0.25104631 5.14644943 0 0 Z " fill="#90B968" transform="translate(41,32)"/>
<path d="M0 0 C0.33 0.66 0.66 1.32 1 2 C4.02934491 2.65772428 4.02934491 2.65772428 7 3 C7 3.66 7 4.32 7 5 C4.6875 7.1875 4.6875 7.1875 2 9 C1.01 8.67 0.02 8.34 -1 8 C-0.87625 8.7425 -0.7525 9.485 -0.625 10.25 C-1 13 -1 13 -3.75 15.3125 C-7 17 -7 17 -11 17 C-10.74730935 12.70425887 -10.4431794 10.52481771 -7.625 7.1875 C-5 5 -5 5 -2 3 C-2.66 2.34 -3.32 1.68 -4 1 C-2 0 -2 0 0 0 Z " fill="#81A45A" transform="translate(53,10)"/>
<path d="M0 0 C1.258125 -0.04125 2.51625 -0.0825 3.8125 -0.125 C4.52019531 -0.14820312 5.22789063 -0.17140625 5.95703125 -0.1953125 C8 0 8 0 11 2 C11.64 8.72 11.64 8.72 10 12 C6.72032242 13.63983879 3.62861311 13.17845638 0 13 C0 8.71 0 4.42 0 0 Z " fill="#9BA38D" transform="translate(22,21)"/>
<path d="M0 0 C5.57074911 -0.2881422 9.26478981 -0.29405926 14 3 C18.87439599 8.4794147 21.14322689 12.56342961 21.125 20 C21.12886719 21.5778125 21.12886719 21.5778125 21.1328125 23.1875 C21 26 21 26 20 29 C23.96 29 27.92 29 32 29 C32 29.33 32 29.66 32 30 C26.39 30.99 20.78 31.98 15 33 C15.33 31.68 15.66 30.36 16 29 C16.66 28.67 17.32 28.34 18 28 C18.69337792 24.9600352 18.69337792 24.9600352 19.125 21.4375 C19.29257813 20.23996094 19.46015625 19.04242187 19.6328125 17.80859375 C19.75398438 16.88175781 19.87515625 15.95492188 20 15 C19.34 15 18.68 15 18 15 C17.566875 13.88625 17.13375 12.7725 16.6875 11.625 C14.89672416 7.77814819 13.69771778 6.84885889 10 5 C9.34 4.34 8.68 3.68 8 3 C5.34462628 2.43479997 2.70855287 2.26211802 0 2 C0 1.34 0 0.68 0 0 Z " fill="#64856A" transform="translate(53,10)"/>
<path d="M0 0 C13.2 0 26.4 0 40 0 C40.495 1.485 40.495 1.485 41 3 C27.47 3 13.94 3 0 3 C0 2.01 0 1.02 0 0 Z " fill="#8EA386" transform="translate(0,38)"/>
<path d="M0 0 C0.33 0 0.66 0 1 0 C1.33 1.65 1.66 3.3 2 5 C3.32 5.33 4.64 5.66 6 6 C6.07622858 9.96388638 5.9681648 13.1273408 5 17 C2.03 17 -0.94 17 -4 17 C-3.690625 16.2575 -3.38125 15.515 -3.0625 14.75 C-2.711875 13.8425 -2.36125 12.935 -2 12 C-1.71125 11.319375 -1.4225 10.63875 -1.125 9.9375 C-0.75699023 7.75135771 -0.75699023 7.75135771 -2.9375 5.75 C-3.618125 5.1725 -4.29875 4.595 -5 4 C-4.0409375 3.8453125 -4.0409375 3.8453125 -3.0625 3.6875 C-2.381875 3.460625 -1.70125 3.23375 -1 3 C-0.67 2.01 -0.34 1.02 0 0 Z " fill="#ADD4CA" transform="translate(57,30)"/>
<path d="M0 0 C0 0.66 0 1.32 0 2 C1.32 2 2.64 2 4 2 C4.33 4.31 4.66 6.62 5 9 C4.01 9.33 3.02 9.66 2 10 C1.67 10.99 1.34 11.98 1 13 C0.34 12.67 -0.32 12.34 -1 12 C-1 11.01 -1 10.02 -1 9 C-1.804375 9.020625 -2.60875 9.04125 -3.4375 9.0625 C-6 9 -6 9 -7 8 C-7.29978682 5.15202522 -7.40071289 3.58103368 -5.75 1.1875 C-4 0 -4 0 0 0 Z " fill="#AFC344" transform="translate(65,27)"/>
<path d="M0 0 C2.10409639 -0.02701408 4.20829178 -0.04640223 6.3125 -0.0625 C7.48425781 -0.07410156 8.65601562 -0.08570313 9.86328125 -0.09765625 C13 0 13 0 16 1 C18.2825699 1.15145099 20.56887706 1.24886979 22.85546875 1.31640625 C23.51710526 1.33718735 24.17874176 1.35796844 24.86042786 1.37937927 C26.96934852 1.44464727 29.07839135 1.50365344 31.1875 1.5625 C32.61915315 1.60570689 34.05079404 1.64932188 35.48242188 1.69335938 C38.98815154 1.80030506 42.49401786 1.90163641 46 2 C46 5.63 46 9.26 46 13 C45.34 13 44.68 13 44 13 C44.33 9.7 44.66 6.4 45 3 C43.35 3 41.7 3 40 3 C40 3.99 40 4.98 40 6 C37.525 5.505 37.525 5.505 35 5 C35 4.67 35 4.34 35 4 C23.78 3.67 12.56 3.34 1 3 C0.67 2.01 0.34 1.02 0 0 Z " fill="#49564A" transform="translate(69,15)"/>
<path d="M0 0 C0.66 0 1.32 0 2 0 C2.33 0.66 2.66 1.32 3 2 C5.97 2 8.94 2 12 2 C12 4.31 12 6.62 12 9 C8.37552075 9 4.8606038 8.7888483 1.25 8.5 C-0.50570312 8.36078125 -0.50570312 8.36078125 -2.296875 8.21875 C-3.18890625 8.1465625 -4.0809375 8.074375 -5 8 C-3.68 7.67 -2.36 7.34 -1 7 C-0.67 4.69 -0.34 2.38 0 0 Z " fill="#D5CEAD" transform="translate(35,51)"/>
<path d="M0 0 C0.66 0.99 1.32 1.98 2 3 C1.125 6.1875 1.125 6.1875 0 9 C-0.66 9 -1.32 9 -2 9 C-2 10.65 -2 12.3 -2 14 C-2.33 13.34 -2.66 12.68 -3 12 C-4.3303125 12.2784375 -4.3303125 12.2784375 -5.6875 12.5625 C-8.91923571 12.98933302 -10.9463095 13.10272157 -14 12 C-15.3125 9.9375 -15.3125 9.9375 -16 8 C-15.34 8 -14.68 8 -14 8 C-13.67 8.33 -13.34 8.66 -13 9 C-12.34 7.68 -11.68 6.36 -11 5 C-11 5.66 -11 6.32 -11 7 C-10.443125 6.79375 -9.88625 6.5875 -9.3125 6.375 C-6.340462 5.89304789 -4.68020059 6.73434972 -2 8 C-1.855625 7.236875 -1.71125 6.47375 -1.5625 5.6875 C-1 3 -1 3 0 0 Z " fill="#B4D2BB" transform="translate(59,21)"/>
<path d="M0 0 C2.31 0 4.62 0 7 0 C7.33 0.66 7.66 1.32 8 2 C8.99 2.33 9.98 2.66 11 3 C11 2.01 11 1.02 11 0 C12.65 0 14.3 0 16 0 C16.36923077 7.50769231 16.36923077 7.50769231 14.5 10 C14.005 10.33 13.51 10.66 13 11 C12.34 8.69 11.68 6.38 11 4 C9.948125 4.2784375 9.948125 4.2784375 8.875 4.5625 C5.66111302 5.05156976 3.16439664 4.66231558 0 4 C0 2.68 0 1.36 0 0 Z " fill="#566357" transform="translate(98,18)"/>
<path d="M0 0 C0.66 0 1.32 0 2 0 C2 3.63 2 7.26 2 11 C-0.10388569 11.05402274 -2.20816714 11.09280256 -4.3125 11.125 C-6.07013672 11.15980469 -6.07013672 11.15980469 -7.86328125 11.1953125 C-11 11 -11 11 -14 9 C-9.07015675 6.96006486 -5.42039575 5.59347032 0 6 C-0.2784375 4.7934375 -0.2784375 4.7934375 -0.5625 3.5625 C-0.706875 2.716875 -0.85125 1.87125 -1 1 C-0.67 0.67 -0.34 0.34 0 0 Z " fill="#58685C" transform="translate(113,28)"/>
<path d="M0 0 C3 1 3 1 4.16796875 3.21484375 C4.50441406 4.11332031 4.84085938 5.01179688 5.1875 5.9375 C5.53167969 6.83339844 5.87585937 7.72929687 6.23046875 8.65234375 C7 11 7 11 7 13 C5.68 13 4.36 13 3 13 C3 11.68 3 10.36 3 9 C1.02 9.99 1.02 9.99 -1 11 C-1 11.66 -1 12.32 -1 13 C-2.32 13 -3.64 13 -5 13 C-4.54554036 11.58208592 -4.08625056 10.16571954 -3.625 8.75 C-3.24214844 7.56664062 -3.24214844 7.56664062 -2.8515625 6.359375 C-2.04826333 4.13372042 -1.10288338 2.09068328 0 0 Z " fill="#8D9D8B" transform="translate(5,21)"/>
<path d="M0 0 C1.2684375 0.2475 1.2684375 0.2475 2.5625 0.5 C6.04985417 1.09146178 6.04985417 1.09146178 9.8125 1 C10.864375 1 11.91625 1 13 1 C14 2 14 2 14 7 C10.7 7 7.4 7 4 7 C3.67 5.68 3.34 4.36 3 3 C2.34 3 1.68 3 1 3 C1.33 3.99 1.66 4.98 2 6 C1.34 6 0.68 6 0 6 C0 4.02 0 2.04 0 0 Z " fill="#E4DBBA" transform="translate(77,52)"/>
<path d="M0 0 C4.62 0 9.24 0 14 0 C14 0.99 14 1.98 14 3 C13.01 3 12.02 3 11 3 C11 3.66 11 4.32 11 5 C10.34 5 9.68 5 9 5 C8.8453125 6.36125 8.8453125 6.36125 8.6875 7.75 C8 11 8 11 5 15 C3.68 11.7 2.36 8.4 1 5 C1.66 4.67 2.32 4.34 3 4 C3.66 5.65 4.32 7.3 5 9 C7.10232344 6.1315587 7.10232344 6.1315587 8 3 C6.865625 2.87625 5.73125 2.7525 4.5625 2.625 C3.386875 2.41875 2.21125 2.2125 1 2 C0.67 1.34 0.34 0.68 0 0 Z " fill="#9C9A83" transform="translate(75,18)"/>
<path d="M0 0 C0.33 0 0.66 0 1 0 C1.15855469 1.00160156 1.31710938 2.00320312 1.48046875 3.03515625 C2.73553392 10.37125616 3.87032003 16.31576003 9 22 C6.57843253 21.58248837 5.30433289 21.33178021 3.61401367 19.48901367 C1.62969507 17.65837396 0.64987075 17.58834101 -2.01171875 17.48828125 C-2.76904297 17.45283203 -3.52636719 17.41738281 -4.30664062 17.38085938 C-5.09232422 17.35830078 -5.87800781 17.33574219 -6.6875 17.3125 C-7.48478516 17.27833984 -8.28207031 17.24417969 -9.10351562 17.20898438 C-11.06851904 17.12661896 -13.03423696 17.06162933 -15 17 C-15 16.67 -15 16.34 -15 16 C-9.72 16 -4.44 16 1 16 C0.67 14.68 0.34 13.36 0 12 C-0.06743348 9.91765408 -0.08514472 7.83331443 -0.0625 5.75 C-0.05347656 4.67234375 -0.04445313 3.5946875 -0.03515625 2.484375 C-0.02355469 1.66453125 -0.01195312 0.8446875 0 0 Z " fill="#688D76" transform="translate(39,23)"/>
<path d="M0 0 C1.20628008 2.33214148 2.1654738 4.49642139 3 7 C1.53698952 9.92602095 -0.41022764 10.09705209 -3.4375 11.1875 C-4.42621094 11.55230469 -5.41492188 11.91710938 -6.43359375 12.29296875 C-9 13 -9 13 -11 12 C-10.34 10.68 -9.68 9.36 -9 8 C-7.68 8 -6.36 8 -5 8 C-5.33 7.01 -5.66 6.02 -6 5 C-5.34 5 -4.68 5 -4 5 C-4 6.32 -4 7.64 -4 9 C-3.34 9 -2.68 9 -2 9 C-1.855625 7.88625 -1.71125 6.7725 -1.5625 5.625 C-1 2 -1 2 0 0 Z " fill="#677060" transform="translate(108,25)"/>
<path d="M0 0 C3.96 0 7.92 0 12 0 C11.67 1.65 11.34 3.3 11 5 C7.7 5 4.4 5 1 5 C0.67 5.99 0.34 6.98 0 8 C0 5.36 0 2.72 0 0 Z " fill="#A8A482" transform="translate(63,53)"/>
<path d="M0 0 C0.66 0 1.32 0 2 0 C2 0.66 2 1.32 2 2 C3.32 2.33 4.64 2.66 6 3 C5.67 4.32 5.34 5.64 5 7 C-1.15234375 7.87890625 -1.15234375 7.87890625 -3 8 C-4 7 -4 7 -4.0625 4.4375 C-4.041875 3.633125 -4.02125 2.82875 -4 2 C-3.01 2 -2.02 2 -1 2 C-0.67 1.34 -0.34 0.68 0 0 Z " fill="#BBB693" transform="translate(99,51)"/>
<path d="M0 0 C1.670625 0.061875 1.670625 0.061875 3.375 0.125 C3.045 1.115 2.715 2.105 2.375 3.125 C1.055 2.795 -0.265 2.465 -1.625 2.125 C-1.625 4.765 -1.625 7.405 -1.625 10.125 C0.025 10.125 1.675 10.125 3.375 10.125 C3.045 11.115 2.715 12.105 2.375 13.125 C-0.2914882 13.34120175 -2.06504321 13.43394168 -4.4375 12.125 C-6.41087049 8.80142865 -5.92812838 5.94441755 -5.625 2.125 C-3.625 0.125 -3.625 0.125 0 0 Z " fill="#788C7B" transform="translate(17.625,20.875)"/>
<path d="M0 0 C2.97 0 5.94 0 9 0 C7.02 0.99 7.02 0.99 5 2 C5.33 2.33 5.66 2.66 6 3 C6.04063832 4.66617115 6.042721 6.33388095 6 8 C4.34385343 8.38218767 2.67542976 8.71395102 1 9 C0 8 0 8 -0.09765625 6.15234375 C-0.06510417 4.1015625 -0.03255208 2.05078125 0 0 Z " fill="#C5C19F" transform="translate(51,49)"/>
<path d="M0 0 C0.33 1.32 0.66 2.64 1 4 C1.66 4 2.32 4 3 4 C3 6.64 3 9.28 3 12 C1.68 12 0.36 12 -1 12 C-1 10.68 -1 9.36 -1 8 C-2.32 7.67 -3.64 7.34 -5 7 C-3.68 7 -2.36 7 -1 7 C-1 6.34 -1 5.68 -1 5 C-2.32 5 -3.64 5 -5 5 C-5 4.34 -5 3.68 -5 3 C-3.35 2.67 -1.7 2.34 0 2 C0 1.34 0 0.68 0 0 Z " fill="#98B053" transform="translate(70,21)"/>
<path d="M0 0 C7.68395543 -0.2137731 14.56340812 -0.01670288 22 2 C22 2.33 22 2.66 22 3 C15.07 3 8.14 3 1 3 C0.67 2.01 0.34 1.02 0 0 Z " fill="#4F5B50" transform="translate(69,15)"/>
<path d="M0 0 C3.3 0.33 6.6 0.66 10 1 C9.01 1.495 9.01 1.495 8 2 C7.31270746 4.11846285 7.31270746 4.11846285 6.875 6.5625 C6.70742187 7.38878906 6.53984375 8.21507812 6.3671875 9.06640625 C6.24601562 9.70449219 6.12484375 10.34257812 6 11 C4.0549 8.08235 3.54723683 6.37462715 3 3 C2.67 4.32 2.34 5.64 2 7 C1.34 7 0.68 7 0 7 C0 4.69 0 2.38 0 0 Z " fill="#747460" transform="translate(75,19)"/>
<path d="M0 0 C1.65 0 3.3 0 5 0 C4.67 0.66 4.34 1.32 4 2 C3.34 1.67 2.68 1.34 2 1 C2 1.66 2 2.32 2 3 C2.66 3 3.32 3 4 3 C4 3.66 4 4.32 4 5 C3.34 5 2.68 5 2 5 C2 5.66 2 6.32 2 7 C3.32 6.34 4.64 5.68 6 5 C6 4.34 6 3.68 6 3 C7.32 3.33 8.64 3.66 10 4 C10 5.32 10 6.64 10 8 C6.7 8 3.4 8 0 8 C0 5.36 0 2.72 0 0 Z " fill="#AFAC8B" transform="translate(3,50)"/>
<path d="M0 0 C0.99 0 1.98 0 3 0 C4.35439668 2.70879335 4.06501451 5.00933268 4 8 C2.34385343 8.38218767 0.67542976 8.71395102 -1 9 C-2 8 -2 8 -2.1875 5.0625 C-2 2 -2 2 0 0 Z " fill="#696E5E" transform="translate(89,23)"/>
<path d="M0 0 C0.66 0.33 1.32 0.66 2 1 C2.375 3.75 2.375 3.75 2 7 C-1.58645816 10.09739568 -3.21087115 11 -8 11 C-8 10.01 -8 9.02 -8 8 C-6.68 7.67 -5.36 7.34 -4 7 C-4 6.01 -4 5.02 -4 4 C-4 3.34 -4 2.68 -4 2 C-2.68 2.33 -1.36 2.66 0 3 C0 2.01 0 1.02 0 0 Z " fill="#A4BE69" transform="translate(50,16)"/>
<path d="M0 0 C1.32 0 2.64 0 4 0 C5.07010304 2.76443285 5.16283213 4.53851367 4.17578125 7.3359375 C3.16488321 9.58474227 2.11596524 11.80159637 1 14 C0.67 14 0.34 14 0 14 C0 9.38 0 4.76 0 0 Z " fill="#F9F4D9" transform="translate(0,18)"/>
<path d="M0 0 C0.99 0 1.98 0 3 0 C3.33 0.66 3.66 1.32 4 2 C4 1.34 4 0.68 4 0 C6.31 0 8.62 0 11 0 C10.34 1.98 9.68 3.96 9 6 C4.25 7.125 4.25 7.125 2 6 C1.27306096 4.02111039 0.60183749 2.02045442 0 0 Z " fill="#AFAE8F" transform="translate(29,62)"/>
<path d="M0 0 C0.33 0.66 0.66 1.32 1 2 C-1.09009433 6.54902883 -4.06561898 9.07014179 -8 12 C-8.66 12 -9.32 12 -10 12 C-9.67 9.03 -9.34 6.06 -9 3 C-8.01 3.99 -7.02 4.98 -6 6 C-5.38125 5.195625 -4.7625 4.39125 -4.125 3.5625 C-2 1 -2 1 0 0 Z " fill="#7DA568" transform="translate(72,33)"/>
<path d="M0 0 C6.38087649 -0.36812749 6.38087649 -0.36812749 9.3125 1.375 C10.55406966 2.5705856 11.78120549 3.78120549 13 5 C9.6875 6.625 9.6875 6.625 6 8 C5.01 7.34 4.02 6.68 3 6 C3.33 5.01 3.66 4.02 4 3 C4.66 3 5.32 3 6 3 C6 2.34 6 1.68 6 1 C4.02 1 2.04 1 0 1 C0 0.67 0 0.34 0 0 Z " fill="#B5CCA7" transform="translate(54,12)"/>
<path d="M0 0 C1.32 0 2.64 0 4 0 C4 4.29 4 8.58 4 13 C2.68 13 1.36 13 0 13 C0 8.71 0 4.42 0 0 Z " fill="#8C9681" transform="translate(34,21)"/>
<path d="M0 0 C0.99 0 1.98 0 3 0 C3.33 1.65 3.66 3.3 4 5 C3.01 5.33 2.02 5.66 1 6 C0.67 6.99 0.34 7.98 0 9 C-0.66 8.67 -1.32 8.34 -2 8 C-2 7.01 -2 6.02 -2 5 C-3.65 5 -5.3 5 -7 5 C-4.66785852 3.79371992 -2.50357861 2.8345262 0 2 C0 1.34 0 0.68 0 0 Z " fill="#A5C452" transform="translate(66,31)"/>
<path d="M0 0 C0.66 0 1.32 0 2 0 C2 2.64 2 5.28 2 8 C-0.31 8 -2.62 8 -5 8 C-5 6.35 -5 4.7 -5 3 C-3.35 3 -1.7 3 0 3 C0 2.01 0 1.02 0 0 Z " fill="#B0AE8E" transform="translate(72,62)"/>
<path d="M0 0 C0.99 0.33 1.98 0.66 3 1 C2.67 2.32 2.34 3.64 2 5 C2.66 5 3.32 5 4 5 C4 5.66 4 6.32 4 7 C5.32 7 6.64 7 8 7 C8 7.66 8 8.32 8 9 C5.03 9 2.06 9 -1 9 C-1.09765625 2.84765625 -1.09765625 2.84765625 -1 1 C-0.67 0.67 -0.34 0.34 0 0 Z " fill="#A1B778" transform="translate(61,19)"/>
<path d="M0 0 C0.33 0 0.66 0 1 0 C1.33 1.65 1.66 3.3 2 5 C14.87 5.495 14.87 5.495 28 6 C28 6.33 28 6.66 28 7 C18.43 7 8.86 7 -1 7 C-0.67 4.69 -0.34 2.38 0 0 Z " fill="#4A5447" transform="translate(74,32)"/>
<path d="M0 0 C0.33 0.66 0.66 1.32 1 2 C3.64 2 6.28 2 9 2 C8.01 2.33 7.02 2.66 6 3 C6 5.64 6 8.28 6 11 C5.67 11 5.34 11 5 11 C4.67 8.69 4.34 6.38 4 4 C3.01 3.67 2.02 3.34 1 3 C1.33 3.99 1.66 4.98 2 6 C0.35 6.33 -1.3 6.66 -3 7 C-3 6.34 -3 5.68 -3 5 C-2.34 5 -1.68 5 -1 5 C-1 4.34 -1 3.68 -1 3 C-1.66 3 -2.32 3 -3 3 C-3 2.34 -3 1.68 -3 1 C-2.01 0.67 -1.02 0.34 0 0 Z " fill="#F4EBCB" transform="translate(8,50)"/>
<path d="M0 0 C3.33773709 3.64116773 3.97864902 7.28607242 5 12 C4.01 12 3.02 12 2 12 C1.855625 11.21625 1.71125 10.4325 1.5625 9.625 C1.12201075 7.03578982 1.12201075 7.03578982 0 5 C-0.66 7.31 -1.32 9.62 -2 12 C-2.66 12 -3.32 12 -4 12 C-3.52494322 10.18641846 -3.04483958 8.37415821 -2.5625 6.5625 C-2.29566406 5.55316406 -2.02882813 4.54382813 -1.75390625 3.50390625 C-1 1 -1 1 0 0 Z " fill="#C1BA97" transform="translate(108,22)"/>
<path d="M0 0 C1.98 0 3.96 0 6 0 C6.33 1.32 6.66 2.64 7 4 C5.35 4.33 3.7 4.66 2 5 C2 5.99 2 6.98 2 8 C1.34 8 0.68 8 0 8 C0 5.36 0 2.72 0 0 Z " fill="#B9B493" transform="translate(14,53)"/>
<path d="M0 0 C0.33 0.66 0.66 1.32 1 2 C2.65 1.67 4.3 1.34 6 1 C6 2.32 6 3.64 6 5 C6.66 5.66 7.32 6.32 8 7 C6.68 6.67 5.36 6.34 4 6 C4 5.34 4 4.68 4 4 C3.34 4 2.68 4 2 4 C2.495 4.61875 2.99 5.2375 3.5 5.875 C5 8 5 8 5 10 C1.125 8.125 1.125 8.125 0 7 C-0.04092937 4.66702567 -0.04241723 2.33294775 0 0 Z " fill="#82A362" transform="translate(41,25)"/>
<path d="M0 0 C1.32 0.33 2.64 0.66 4 1 C4 3.31 4 5.62 4 8 C2.68 8.33 1.36 8.66 0 9 C0 6.03 0 3.06 0 0 Z " fill="#F4EECC" transform="translate(26,23)"/>
<path d="M0 0 C1.258125 -0.04125 2.51625 -0.0825 3.8125 -0.125 C4.52019531 -0.14820312 5.22789063 -0.17140625 5.95703125 -0.1953125 C8 0 8 0 11 2 C11.1875 5.625 11.1875 5.625 11 9 C10.34 8.67 9.68 8.34 9 8 C8.6596875 6.7934375 8.6596875 6.7934375 8.3125 5.5625 C7.15825989 2.59146286 7.15825989 2.59146286 3.375 1.6875 C2.26125 1.460625 1.1475 1.23375 0 1 C0 0.67 0 0.34 0 0 Z " fill="#7F8F7D" transform="translate(22,21)"/>
<path d="M0 0 C1.32 0.66 2.64 1.32 4 2 C-1.14285714 7.57142857 -1.14285714 7.57142857 -5 8 C-5 6.68 -5 5.36 -5 4 C-4.0409375 3.8453125 -4.0409375 3.8453125 -3.0625 3.6875 C-2.381875 3.460625 -1.70125 3.23375 -1 3 C-0.67 2.01 -0.34 1.02 0 0 Z " fill="#7AA087" transform="translate(67,41)"/>
<path d="M0 0 C3.53640412 2.23972261 4.60286482 4.10798056 6 8 C6.66 8.66 7.32 9.32 8 10 C7.67 10.99 7.34 11.98 7 13 C3.02814384 8.894534 0.29123499 5.97031739 0 0 Z " fill="#A3CAC2" transform="translate(41,32)"/>
<path d="M0 0 C0.66 0 1.32 0 2 0 C2.36923077 7.50769231 2.36923077 7.50769231 0.5 10 C0.005 10.33 -0.49 10.66 -1 11 C-1.66 8.69 -2.32 6.38 -3 4 C-2.34 4 -1.68 4 -1 4 C-0.67 2.68 -0.34 1.36 0 0 Z " fill="#5D6D61" transform="translate(112,18)"/>
<path d="M0 0 C0.66 0 1.32 0 2 0 C2 2.64 2 5.28 2 8 C0.35 7.67 -1.3 7.34 -3 7 C-2.67 5.68 -2.34 4.36 -2 3 C-1.34 3 -0.68 3 0 3 C0 2.01 0 1.02 0 0 Z " fill="#B0AE8E" transform="translate(55,62)"/>
<path d="M0 0 C4.92127034 -0.16682272 8.50343896 -0.24828052 13 2 C12.67 3.32 12.34 4.64 12 6 C10 5 10 5 8 3 C5.34462628 2.43479997 2.70855287 2.26211802 0 2 C0 1.34 0 0.68 0 0 Z " fill="#719674" transform="translate(53,10)"/>
<path d="M0 0 C2.31 0 4.62 0 7 0 C6.67 1.65 6.34 3.3 6 5 C4.35 5 2.7 5 1 5 C0.67 3.35 0.34 1.7 0 0 Z " fill="#ABA887" transform="translate(58,65)"/>
<path d="M0 0 C2.31 0.66 4.62 1.32 7 2 C7.33 3.32 7.66 4.64 8 6 C6.35 5.67 4.7 5.34 3 5 C3 4.34 3 3.68 3 3 C2.34 3 1.68 3 1 3 C1.33 3.99 1.66 4.98 2 6 C1.34 6 0.68 6 0 6 C0 4.02 0 2.04 0 0 Z " fill="#AEA989" transform="translate(77,52)"/>
<path d="M0 0 C2.64 0 5.28 0 8 0 C7.34 1.32 6.68 2.64 6 4 C5.34 3.34 4.68 2.68 4 2 C3.67 2.99 3.34 3.98 3 5 C2.34 5 1.68 5 1 5 C0.67 5.99 0.34 6.98 0 8 C0 5.36 0 2.72 0 0 Z " fill="#B9B391" transform="translate(63,53)"/>
<path d="M0 0 C0.33 0 0.66 0 1 0 C0.814375 1.134375 0.62875 2.26875 0.4375 3.4375 C0.2209375 5.2009375 0.2209375 5.2009375 0 7 C0.33 7.33 0.66 7.66 1 8 C1 8.99 1 9.98 1 11 C-0.65 10.67 -2.3 10.34 -4 10 C-4 8.35 -4 6.7 -4 5 C-3.01 4.67 -2.02 4.34 -1 4 C-0.26676204 1.98491642 -0.26676204 1.98491642 0 0 Z " fill="#7D816E" transform="translate(85,26)"/>
<path d="M0 0 C1.32 0.33 2.64 0.66 4 1 C4 2.32 4 3.64 4 5 C4.66 5.33 5.32 5.66 6 6 C4.33388095 6.042721 2.66617115 6.04063832 1 6 C0 5 0 5 -0.0625 2.4375 C-0.041875 1.633125 -0.02125 0.82875 0 0 Z " fill="#CAC4A3" transform="translate(95,53)"/>
<path d="M0 0 C0.99 0.33 1.98 0.66 3 1 C3 1.66 3 2.32 3 3 C2.34 3 1.68 3 1 3 C1.33 4.65 1.66 6.3 2 8 C1.01 8 0.02 8 -1 8 C-1.93065133 5.39417629 -2.14917407 4.35801776 -1.0625 1.75 C-0.711875 1.1725 -0.36125 0.595 0 0 Z " fill="#ABB39B" transform="translate(5,21)"/>
<path d="M0 0 C0 0.33 0 0.66 0 1 C-1.65 1.33 -3.3 1.66 -5 2 C-5.33 2.99 -5.66 3.98 -6 5 C-6.66 4.67 -7.32 4.34 -8 4 C-7.67 3.01 -7.34 2.02 -7 1 C-8.98 1 -10.96 1 -13 1 C-13 0.67 -13 0.34 -13 0 C-8.37078475 -1.0161692 -4.65537393 -0.83796731 0 0 Z " fill="#CFD7BD" transform="translate(28,20)"/>
<path d="M0 0 C0.33 0 0.66 0 1 0 C1.33 1.65 1.66 3.3 2 5 C3.65 5 5.3 5 7 5 C6.67 5.99 6.34 6.98 6 8 C3.625 8.125 3.625 8.125 1 8 C0.34 7.34 -0.32 6.68 -1 6 C-0.625 2.875 -0.625 2.875 0 0 Z " fill="#9AA38B" transform="translate(14,26)"/>
<path d="M0 0 C-0.625 1.9375 -0.625 1.9375 -2 4 C-5.125 4.75 -5.125 4.75 -8 5 C-7.8125 3.125 -7.8125 3.125 -7 1 C-2.66666667 -1.33333333 -2.66666667 -1.33333333 0 0 Z " fill="#687363" transform="translate(108,23)"/>
<path d="M0 0 C2.31 0 4.62 0 7 0 C6.67 0.99 6.34 1.98 6 3 C4.02 3.33 2.04 3.66 0 4 C0 2.68 0 1.36 0 0 Z " fill="#6A7165" transform="translate(89,18)"/>
<path d="M0 0 C1.65 0.99 3.3 1.98 5 3 C4.67 3.99 4.34 4.98 4 6 C2.35 6.33 0.7 6.66 -1 7 C-0.34 6.67 0.32 6.34 1 6 C0.67 4.02 0.34 2.04 0 0 Z " fill="#CBDDB4" transform="translate(51,17)"/>
<path d="M0 0 C-0.33 1.32 -0.66 2.64 -1 4 C-2.32 4 -3.64 4 -5 4 C-5 3.34 -5 2.68 -5 2 C-5.66 1.67 -6.32 1.34 -7 1 C-4.53721199 -0.231394 -2.7204945 -0.07159196 0 0 Z " fill="#94B45D" transform="translate(57,14)"/>
<path d="M0 0 C1.98 0.495 1.98 0.495 4 1 C3.67 2.32 3.34 3.64 3 5 C1.68 4.67 0.36 4.34 -1 4 C-0.67 2.68 -0.34 1.36 0 0 Z " fill="#BCB997" transform="translate(40,65)"/>
<path d="M0 0 C1.32 0.33 2.64 0.66 4 1 C3.67 2.32 3.34 3.64 3 5 C2.34 5 1.68 5 1 5 C0.67 5.99 0.34 6.98 0 8 C0 5.36 0 2.72 0 0 Z " fill="#A29F7E" transform="translate(58,53)"/>
<path d="M0 0 C0.33 0 0.66 0 1 0 C1.33 1.98 1.66 3.96 2 6 C1.34 6 0.68 6 0 6 C-0.33 6.66 -0.66 7.32 -1 8 C-2.32 6.68 -3.64 5.36 -5 4 C-4.0409375 3.8453125 -4.0409375 3.8453125 -3.0625 3.6875 C-2.381875 3.460625 -1.70125 3.23375 -1 3 C-0.67 2.01 -0.34 1.02 0 0 Z " fill="#ABCCB7" transform="translate(57,30)"/>
<path d="M0 0 C1.20628008 2.33214148 2.1654738 4.49642139 3 7 C1.68 7.33 0.36 7.66 -1 8 C-2.2077558 4.37673261 -1.54311128 3.35853631 0 0 Z " fill="#7A8069" transform="translate(108,25)"/>
<path d="M0 0 C2.97 0.495 2.97 0.495 6 1 C5.67 2.32 5.34 3.64 5 5 C5 4.34 5 3.68 5 3 C3.02 3.33 1.04 3.66 -1 4 C-0.67 2.68 -0.34 1.36 0 0 Z " fill="#B8D9C7" transform="translate(51,30)"/>
<path d="M0 0 C0.66 0 1.32 0 2 0 C1.67 2.31 1.34 4.62 1 7 C-0.65 7 -2.3 7 -4 7 C-3.34 6.34 -2.68 5.68 -2 5 C-1.29289322 3.35008418 -0.62056011 1.68437744 0 0 Z " fill="#92C0BC" transform="translate(61,40)"/>
<path d="M0 0 C0.33 1.32 0.66 2.64 1 4 C-2 6 -2 6 -6 6 C-5.67 5.01 -5.34 4.02 -5 3 C-4.01 3 -3.02 3 -2 3 C-1.34 2.01 -0.68 1.02 0 0 Z " fill="#9ECAC8" transform="translate(59,41)"/>
<path d="M0 0 C0 0.66 0 1.32 0 2 C-0.99 2 -1.98 2 -3 2 C-3 2.66 -3 3.32 -3 4 C-3.99 4.33 -4.98 4.66 -6 5 C-6.66 4.01 -7.32 3.02 -8 2 C-4.91190305 0.23537317 -3.76687864 0 0 0 Z " fill="#BBD14B" transform="translate(69,29)"/>
<path d="M0 0 C0.99 0 1.98 0 3 0 C3 1.65 3 3.3 3 5 C1.68 4.67 0.36 4.34 -1 4 C-0.67 2.68 -0.34 1.36 0 0 Z " fill="#B4B090" transform="translate(76,65)"/>
<path d="M0 0 C0.99 0 1.98 0 3 0 C5 3 5 3 5 6 C4.01 6 3.02 6 2 6 C1.34 4.02 0.68 2.04 0 0 Z " fill="#A6A98C" transform="translate(29,62)"/>
<path d="M0 0 C2.475 0.495 2.475 0.495 5 1 C5 2.32 5 3.64 5 5 C4.34 5 3.68 5 3 5 C3 4.01 3 3.02 3 2 C2.34 2 1.68 2 1 2 C0.67 2.99 0.34 3.98 0 5 C0 3.35 0 1.7 0 0 Z " fill="#A9A483" transform="translate(86,53)"/>
<path d="M0 0 C1.65 0 3.3 0 5 0 C4.67 1.32 4.34 2.64 4 4 C2.68 3.67 1.36 3.34 0 3 C0 2.01 0 1.02 0 0 Z " fill="#83AE58" transform="translate(49,42)"/>
<path d="M0 0 C2.62187494 1.04874998 3.79371361 1.64931313 5.25 4.125 C5.4975 4.74375 5.745 5.3625 6 6 C3.64828869 5.40138258 1.3140622 4.73075648 -1 4 C-1.33 3.34 -1.66 2.68 -2 2 C-1.34 2 -0.68 2 0 2 C0 1.34 0 0.68 0 0 Z " fill="#6B7162" transform="translate(85,31)"/>
<path d="M0 0 C2.475 0.495 2.475 0.495 5 1 C5 1.99 5 2.98 5 4 C3.35 4 1.7 4 0 4 C0 2.68 0 1.36 0 0 Z " fill="#A7C465" transform="translate(47,33)"/>
<path d="M0 0 C0.99 0 1.98 0 3 0 C3.33 0.99 3.66 1.98 4 3 C3.34 3.66 2.68 4.32 2 5 C1.01 5 0.02 5 -1 5 C-0.67 3.35 -0.34 1.7 0 0 Z " fill="#6E735F" transform="translate(94,30)"/>
<path d="M0 0 C2.0625 0.4375 2.0625 0.4375 4 1 C3.34 1 2.68 1 2 1 C1.67 2.98 1.34 4.96 1 7 C0.34 6.67 -0.32 6.34 -1 6 C-1.042721 4.33388095 -1.04063832 2.66617115 -1 1 C-0.67 0.67 -0.34 0.34 0 0 Z " fill="#686C5F" transform="translate(81,20)"/>
<path d="M0 0 C1.32 0 2.64 0 4 0 C4 1.65 4 3.3 4 5 C2.68 5 1.36 5 0 5 C0 3.35 0 1.7 0 0 Z " fill="#A7A483" transform="translate(38,53)"/>
<path d="M0 0 C0.99 0 1.98 0 3 0 C3 1.98 3 3.96 3 6 C2.01 5.67 1.02 5.34 0 5 C-0.75 3 -0.75 3 -1 1 C-0.67 0.67 -0.34 0.34 0 0 Z " fill="#A4A07F" transform="translate(44,53)"/>
<path d="M0 0 C0.33 0 0.66 0 1 0 C1 1.65 1 3.3 1 5 C1.66 5 2.32 5 3 5 C3 5.99 3 6.98 3 8 C1.68 8.33 0.36 8.66 -1 9 C-0.67 6.03 -0.34 3.06 0 0 Z " fill="#76A257" transform="translate(63,36)"/>
<path d="M0 0 C0.66 0.33 1.32 0.66 2 1 C1.34 2.32 0.68 3.64 0 5 C-1.32 4.67 -2.64 4.34 -4 4 C-4 3.34 -4 2.68 -4 2 C-2.68 2 -1.36 2 0 2 C0 1.34 0 0.68 0 0 Z " fill="#7AAD53" transform="translate(52,35)"/>
<path d="M0 0 C0.33 0.66 0.66 1.32 1 2 C2.32 1.67 3.64 1.34 5 1 C4.67 1.99 4.34 2.98 4 4 C1.9375 4.6875 1.9375 4.6875 0 5 C-0.33 4.01 -0.66 3.02 -1 2 C-0.67 1.34 -0.34 0.68 0 0 Z " fill="#BDD9C0" transform="translate(47,26)"/>
<path d="M0 0 C-0.99 1.485 -0.99 1.485 -2 3 C-3.32 2.67 -4.64 2.34 -6 2 C-6 1.34 -6 0.68 -6 0 C-3.50907189 -1.24546405 -2.58919267 -0.7767578 0 0 Z " fill="#9BB65A" transform="translate(69,18)"/>
</svg>
