<?xml version="1.0" encoding="UTF-8"?>
<svg version="1.1" xmlns="http://www.w3.org/2000/svg" width="120" height="121">
<path d="M0 0 C39.6 0 79.2 0 120 0 C120 39.93 120 79.86 120 121 C80.4 121 40.8 121 0 121 C0 81.07 0 41.14 0 0 Z " fill="#F8EFCA" transform="translate(0,0)"/>
<path d="M0 0 C0.33 1.65 0.66 3.3 1 5 C1.515625 4.835 2.03125 4.67 2.5625 4.5 C6.89579393 3.61111919 10.59232257 3.37800299 14.6875 5.1875 C18.32781376 8.0407189 20.63328143 9.88118157 21.45703125 14.640625 C21.89437603 22.57385588 19.9209802 27.82259932 15 34 C12.375 36.6875 12.375 36.6875 10 38 C7.56861295 37.7915954 6.17149089 37.08574545 4 36 C4 35.34 4 34.68 4 34 C3.19175781 34.05800781 2.38351563 34.11601563 1.55078125 34.17578125 C-7.23462415 34.54669704 -7.23462415 34.54669704 -11.0625 31.8125 C-11.701875 30.884375 -12.34125 29.95625 -13 29 C-13.598125 28.236875 -14.19625 27.47375 -14.8125 26.6875 C-16.44975505 22.9821333 -16.83187788 19.92073591 -16 16 C-13.19437681 9.56298509 -7.86006808 0 0 0 Z " fill="#F2E6BF" transform="translate(60,6)"/>
<path d="M0 0 C15 0 15 0 19 2 C19 11.24 19 20.48 19 30 C17.35 30 15.7 30 14 30 C13.79503906 29.31292969 13.59007813 28.62585938 13.37890625 27.91796875 C13.10949219 27.01691406 12.84007813 26.11585937 12.5625 25.1875 C12.29566406 24.29417969 12.02882813 23.40085937 11.75390625 22.48046875 C11.19612127 20.64526945 10.60655425 18.81966274 10 17 C8.68 17 7.36 17 6 17 C6 21.29 6 25.58 6 30 C3.69 30 1.38 30 -1 30 C-0.67 20.1 -0.34 10.2 0 0 Z " fill="#D66845" transform="translate(101,50)"/>
<path d="M0 0 C2.64 0 5.28 0 8 0 C8.02505615 0.68626465 8.0501123 1.3725293 8.07592773 2.07958984 C8.19171427 5.17825817 8.31451885 8.27660923 8.4375 11.375 C8.47681641 12.45523438 8.51613281 13.53546875 8.55664062 14.6484375 C8.61948242 16.1953125 8.61948242 16.1953125 8.68359375 17.7734375 C8.72025146 18.72653809 8.75690918 19.67963867 8.79467773 20.66162109 C8.85763465 23.02132349 8.85763465 23.02132349 10 25 C12.41619823 25.25030977 12.41619823 25.25030977 15 25 C17.15749784 21.76375324 17.28360488 20.65605934 17.4140625 16.89453125 C17.45273438 15.91162109 17.49140625 14.92871094 17.53125 13.91601562 C17.5621875 12.89185547 17.593125 11.86769531 17.625 10.8125 C17.66367188 9.77673828 17.70234375 8.74097656 17.7421875 7.67382812 C17.83648296 5.11606378 17.92208202 2.55830713 18 0 C19.98 0 21.96 0 24 0 C24.05444001 3.00024947 24.0938836 5.99949039 24.125 9 C24.14175781 9.83917969 24.15851563 10.67835937 24.17578125 11.54296875 C24.22166109 17.46146768 24.22859933 23.99623568 20.5625 28.9375 C16.3014722 31.83499891 10.93006141 31.71552725 6 31 C2.65374976 28.47323961 1.32022153 26.96066458 0 23 C-0.08209792 21.22686149 -0.10746294 19.45079225 -0.09765625 17.67578125 C-0.09443359 16.64775391 -0.09121094 15.61972656 -0.08789062 14.56054688 C-0.07951172 13.48869141 -0.07113281 12.41683594 -0.0625 11.3125 C-0.05798828 10.22904297 -0.05347656 9.14558594 -0.04882812 8.02929688 C-0.03703743 5.35280915 -0.02058063 2.67643223 0 0 Z " fill="#D76F4C" transform="translate(72,50)"/>
<path d="M0 0 C3.63 0 7.26 0 11 0 C19 25.20158103 19 25.20158103 19 30 C16.36 30 13.72 30 11 30 C10.49564306 28.0636296 9.99666126 26.12585854 9.5 24.1875 C9.2215625 23.10855469 8.943125 22.02960938 8.65625 20.91796875 C8 18 8 18 8 15 C4.14302727 16.49610738 4.14302727 16.49610738 1 19 C-0.21401203 22.62119469 -0.67923998 26.20324876 -1 30 C-3.31 30 -5.62 30 -8 30 C-6.65705862 24.07884935 -5.26323807 18.34579868 -2.875 12.75 C-1.04704342 8.43825509 -0.34531093 4.66169762 0 0 Z " fill="#D66D4B" transform="translate(29,50)"/>
<path d="M0 0 C1.04800781 0.02449219 2.09601562 0.04898438 3.17578125 0.07421875 C5.6875 0.3125 5.6875 0.3125 6.6875 1.3125 C6.72830783 3.31208364 6.73004356 5.31295254 6.6875 7.3125 C6.01203125 7.19390625 5.3365625 7.0753125 4.640625 6.953125 C3.74859375 6.82421875 2.8565625 6.6953125 1.9375 6.5625 C0.61492188 6.35367188 0.61492188 6.35367188 -0.734375 6.140625 C-3.42591922 6.09818246 -3.42591922 6.09818246 -5.62109375 7.9140625 C-7.77285529 10.96529018 -7.75680317 12.73792141 -7.625 16.4375 C-7.60050781 17.49195312 -7.57601563 18.54640625 -7.55078125 19.6328125 C-7.48001144 22.2826729 -7.48001144 22.2826729 -6.3125 24.3125 C-3.9984378 25.04325648 -1.66421131 25.71388258 0.6875 26.3125 C0.3575 22.6825 0.0275 19.0525 -0.3125 15.3125 C2.3275 15.3125 4.9675 15.3125 7.6875 15.3125 C7.6875 19.9325 7.6875 24.5525 7.6875 29.3125 C1.47134118 31.38455294 -3.11668053 32.87641166 -9.25 29.875 C-11.3125 28.3125 -11.3125 28.3125 -12.3125 27.3125 C-12.6757321 23.55145467 -12.6840697 19.77621487 -12.75 16 C-12.79576172 14.94103516 -12.84152344 13.88207031 -12.88867188 12.79101562 C-13.00155085 5.02199746 -13.00155085 5.02199746 -9.6796875 1.6015625 C-6.16700662 0.25680068 -3.74221401 -0.13514845 0 0 Z " fill="#D66241" transform="translate(12.3125,49.6875)"/>
<path d="M0 0 C0.33 1.32 0.66 2.64 1 4 C0.29875 4.20625 -0.4025 4.4125 -1.125 4.625 C-4.94211619 6.45057731 -7.75001645 8.35681471 -10 12 C-10.79485478 15.49848054 -10.76456832 18.49816037 -10 22 C-7.98900679 25.07933335 -6.58480348 26.49196824 -3.0625 27.62109375 C0.25600744 28.23074379 2.75445043 28.08359134 5.9375 27 C8.79756071 24.2266078 8.78023073 21.88259043 9 18 C4.34947128 17.73067479 4.34947128 17.73067479 0 19 C0.875 15.125 0.875 15.125 2 14 C5.49225533 13.73643356 8.17239929 13.6604715 11.4375 15 C13.40416285 17.51732845 13.73662806 19.626334 13.58984375 22.796875 C12.44353998 27.07843345 9.37856456 30.24633255 6 33 C1.58159057 34.60425008 -3.38375125 34.66695802 -8 34 C-10.9375 31.8125 -10.9375 31.8125 -13 29 C-13.598125 28.236875 -14.19625 27.47375 -14.8125 26.6875 C-16.44975505 22.9821333 -16.83187788 19.92073591 -16 16 C-13.19437681 9.56298509 -7.86006808 0 0 0 Z " fill="#D66B48" transform="translate(60,6)"/>
<path d="M0 0 C3.64031376 2.8532189 5.94578143 4.69368157 6.76953125 9.453125 C7.20687603 17.38635588 5.2334802 22.63509932 0.3125 28.8125 C-2.3125 31.5 -2.3125 31.5 -4.6875 32.8125 C-6.9375 32.6875 -6.9375 32.6875 -8.6875 31.8125 C-9.0175 31.1525 -9.3475 30.4925 -9.6875 29.8125 C-9.14480469 29.53277344 -8.60210937 29.25304687 -8.04296875 28.96484375 C-4.12424465 26.7689461 -1.9945067 25.34016777 0.3125 21.375 C1.31206293 17.81405705 1.94632017 15.456966 1.3125 11.8125 C-2.15965764 7.70073437 -4.14191586 5.96452467 -9.5 5.4375 C-13.04495596 5.47624269 -13.65661606 5.78933705 -16.6875 8.0625 C-19.07961447 10.78492945 -19.07961447 10.78492945 -18.6875 14.8125 C-15.7175 14.8125 -12.7475 14.8125 -9.6875 14.8125 C-9.6875 15.4725 -9.6875 16.1325 -9.6875 16.8125 C-13.08063374 18.9005823 -15.73349009 19.31726722 -19.6875 18.8125 C-22.18462139 16.64832812 -22.62305075 15.18308318 -23.1875 11.9375 C-22.52770806 7.81380038 -20.776634 5.46885677 -17.6875 2.8125 C-12.07471162 -0.99198417 -6.53337951 -2.88684211 0 0 Z " fill="#5E7890" transform="translate(74.6875,11.1875)"/>
<path d="M0 0 C2.97 0 5.94 0 9 0 C13 7.75 13 7.75 13 10 C13.66 10 14.32 10 15 10 C15.28875 9.0925 15.5775 8.185 15.875 7.25 C16.76531776 4.67797092 17.71494413 2.38653234 19 0 C21.31 0 23.62 0 26 0 C25.23177266 1.56378292 24.46028836 3.125966 23.6875 4.6875 C23.25824219 5.55761719 22.82898438 6.42773438 22.38671875 7.32421875 C21 10 21 10 19.375 12.34375 C17.59140913 15.78932327 17.43977169 19.01253108 17.3125 22.8125 C17.27833984 23.50537109 17.24417969 24.19824219 17.20898438 24.91210938 C17.12713656 26.60752849 17.06187635 28.30373458 17 30 C14.69 30 12.38 30 10 30 C10.020625 29.14019531 10.04125 28.28039062 10.0625 27.39453125 C9.90141797 18.16251744 7.97813737 13.12548108 2.8125 5.64453125 C1 3 1 3 0 0 Z " fill="#D66745" transform="translate(44,50)"/>
<path d="M0 0 C3.75212276 2.01502889 5.63644095 3.45466142 8 7 C8.32201054 11.79713135 7.84449038 16.53698129 4.875 20.4375 C1.61130365 23.34644675 -0.91259442 24.55738627 -5 26 C-5 25.34 -5 24.68 -5 24 C-5.66 23.67 -6.32 23.34 -7 23 C-6.278125 22.79375 -5.55625 22.5875 -4.8125 22.375 C-1.24080581 20.6288384 1.14616666 18.49405626 3 15 C3.59088379 12.02901419 3.41111669 10.08337515 3 7 C-0.6441774 4.5705484 -2.71241272 4.83820425 -7 5 C-7 5.99 -7 6.98 -7 8 C-6.01 8.66 -5.02 9.32 -4 10 C-8.455 10.495 -8.455 10.495 -13 11 C-13.75 8.8125 -13.75 8.8125 -14 6 C-10.22065817 0.26582619 -6.76236185 -0.93013899 0 0 Z " fill="#E7DCB7" transform="translate(69,16)"/>
<path d="M0 0 C2.5625 0.1875 2.5625 0.1875 4.5625 2.1875 C4.5625 3.5075 4.5625 4.8275 4.5625 6.1875 C5.2225 6.1875 5.8825 6.1875 6.5625 6.1875 C6.5625 6.8475 6.5625 7.5075 6.5625 8.1875 C7.5525 8.1875 8.5425 8.1875 9.5625 8.1875 C9.5625 14.1275 9.5625 20.0675 9.5625 26.1875 C7.9125 26.1875 6.2625 26.1875 4.5625 26.1875 C4.35753906 25.48882812 4.15257813 24.79015625 3.94140625 24.0703125 C3.67199219 23.16023438 3.40257813 22.25015625 3.125 21.3125 C2.85816406 20.40757813 2.59132813 19.50265625 2.31640625 18.5703125 C1.63636174 16.20474619 1.63636174 16.20474619 0.5625 14.1875 C1.2225 14.1875 1.8825 14.1875 2.5625 14.1875 C2.8925 12.8675 3.2225 11.5475 3.5625 10.1875 C1.2525 9.8575 -1.0575 9.5275 -3.4375 9.1875 C-3.53515625 3.03515625 -3.53515625 3.03515625 -3.4375 1.1875 C-2.4375 0.1875 -2.4375 0.1875 0 0 Z " fill="#D76644" transform="translate(110.4375,53.8125)"/>
<path d="M0 0 C3.63 0 7.26 0 11 0 C10.67 0.66 10.34 1.32 10 2 C7.03 1.67 4.06 1.34 1 1 C1.33 1.99 1.66 2.98 2 4 C2.66 4 3.32 4 4 4 C4 4.66 4 5.32 4 6 C4.66 6 5.32 6 6 6 C6.625 8.875 6.625 8.875 7 12 C6.34 12.66 5.68 13.32 5 14 C4.01 14 3.02 14 2 14 C1.27005441 17.59711928 0.59025242 21.20060329 -0.0625 24.8125 C-0.23910156 25.78832031 -0.41570313 26.76414062 -0.59765625 27.76953125 C-0.73042969 28.50558594 -0.86320312 29.24164063 -1 30 C-3.31 30 -5.62 30 -8 30 C-6.65705862 24.07884935 -5.26323807 18.34579868 -2.875 12.75 C-1.04704342 8.43825509 -0.34531093 4.66169762 0 0 Z " fill="#D66342" transform="translate(29,50)"/>
<path d="M0 0 C2.64 0 5.28 0 8 0 C8 4.62 8 9.24 8 14 C2.25416316 15.91527895 -0.2454212 16.37734943 -6 16 C-6.99 15.34 -7.98 14.68 -9 14 C-7.02 14 -5.04 14 -3 14 C-3 13.01 -3 12.02 -3 11 C-1.68 11 -0.36 11 1 11 C0.67 7.37 0.34 3.74 0 0 Z " fill="#D66947" transform="translate(12,65)"/>
<path d="M0 0 C2.31 0 4.62 0 7 0 C6.23177266 1.56378292 5.46028836 3.125966 4.6875 4.6875 C4.25824219 5.55761719 3.82898438 6.42773438 3.38671875 7.32421875 C2 10 2 10 0.375 12.40625 C-1.33488689 15.63171845 -1.50411832 18.18154268 -1.6875 21.8125 C-1.75324219 22.97394531 -1.81898437 24.13539062 -1.88671875 25.33203125 C-1.92410156 26.21246094 -1.96148437 27.09289062 -2 28 C-2.33 28 -2.66 28 -3 28 C-3.12117188 27.43410156 -3.24234375 26.86820313 -3.3671875 26.28515625 C-3.53476562 25.55167969 -3.70234375 24.81820312 -3.875 24.0625 C-4.03742187 23.33160156 -4.19984375 22.60070312 -4.3671875 21.84765625 C-4.82961523 19.79299706 -4.82961523 19.79299706 -7 19 C-7 18.01 -7 17.02 -7 16 C-6.34 16 -5.68 16 -5 16 C-4.67 14.35 -4.34 12.7 -4 11 C-4.66 10.67 -5.32 10.34 -6 10 C-5.34 10 -4.68 10 -4 10 C-3.71125 9.0925 -3.4225 8.185 -3.125 7.25 C-2.23468224 4.67797092 -1.28505587 2.38653234 0 0 Z " fill="#D97854" transform="translate(63,50)"/>
<path d="M0 0 C0.99 0.66 1.98 1.32 3 2 C0.69 2 -1.62 2 -4 2 C-4 2.66 -4 3.32 -4 4 C-8.455 4.495 -8.455 4.495 -13 5 C-13.33 6.32 -13.66 7.64 -14 9 C-14.99 10.485 -14.99 10.485 -16 12 C-16 13.32 -16 14.64 -16 16 C-13.03 16 -10.06 16 -7 16 C-7 16.66 -7 17.32 -7 18 C-10.39313374 20.0880823 -13.04599009 20.50476722 -17 20 C-19.49712139 17.83582812 -19.93555075 16.37058318 -20.5 13.125 C-19.84020806 9.00130038 -18.089134 6.65635677 -15 4 C-10.13304514 0.70105989 -5.96449398 -0.70170517 0 0 Z " fill="#5A7385" transform="translate(72,10)"/>
<path d="M0 0 C2 2 2 2 2.3125 5.4375 C2 9 2 9 0.8125 11 C-1 12 -1 12 -3.5 11.875 C-6.1985972 10.93049098 -7.3982611 10.36045732 -9 8 C-9.42822025 5.14519831 -9.40659584 3.65507108 -7.875 1.1875 C-5.16554166 -0.52849028 -3.13704316 -0.333728 0 0 Z " fill="#7B898E" transform="translate(63,92)"/>
<path d="M0 0 C2.97 0 5.94 0 9 0 C8.67 1.11375 8.34 2.2275 8 3.375 C6.911357 6.69459717 6.911357 6.69459717 7 9 C7.66 9.66 8.32 10.32 9 11 C9 11.99 9 12.98 9 14 C8.34 14 7.68 14 7 14 C7 13.34 7 12.68 7 12 C5.02 12 3.04 12 1 12 C1.95865509 14.33075929 1.95865509 14.33075929 5 16 C3.35 16 1.7 16 0 16 C0 10.72 0 5.44 0 0 Z " fill="#70828B" transform="translate(0,92)"/>
<path d="M0 0 C2.31 0 4.62 0 7 0 C7 3.96 7 7.92 7 12 C5.68 12 4.36 12 3 12 C3.33 13.32 3.66 14.64 4 16 C2.68 16 1.36 16 0 16 C0 10.72 0 5.44 0 0 Z " fill="#869190" transform="translate(113,92)"/>
<path d="M0 0 C1.98 0 3.96 0 6 0 C6 6.27 6 12.54 6 19 C5.67 19 5.34 19 5 19 C4.67 16.03 4.34 13.06 4 10 C2.38935371 13.65079826 1.55105909 17.0507432 1 21 C0.67 21 0.34 21 0 21 C0 14.07 0 7.14 0 0 Z " fill="#D46E4B" transform="translate(90,50)"/>
<path d="M0 0 C0.33 1.32 0.66 2.64 1 4 C0.29875 4.20625 -0.4025 4.4125 -1.125 4.625 C-4.89292448 6.42705084 -7.63152418 8.53025835 -10 12 C-10.76768086 14.77162701 -10.89980473 17.09433727 -11 20 C-11.99 19.34 -12.98 18.68 -14 18 C-14.33 19.98 -14.66 21.96 -15 24 C-15.33 24 -15.66 24 -16 24 C-16.8342981 16.49131708 -14.53810839 11.94512016 -10 6 C-4.35714286 0 -4.35714286 0 0 0 Z " fill="#D77D5A" transform="translate(60,6)"/>
<path d="M0 0 C2.64 0 5.28 0 8 0 C7.74412595 1.77305664 7.46972261 3.54344608 7.1875 5.3125 C7.03667969 6.29863281 6.88585937 7.28476562 6.73046875 8.30078125 C5.96177744 11.14123951 5.34378146 12.27020663 3 14 C2.34 14 1.68 14 1 14 C0.67 9.38 0.34 4.76 0 0 Z " fill="#DA6543" transform="translate(72,50)"/>
<path d="M0 0 C0.66 0.66 1.32 1.32 2 2 C-4.34671401 13.42844721 -4.34671401 13.42844721 -9 16 C-11.25 15.875 -11.25 15.875 -13 15 C-13.33 14.34 -13.66 13.68 -14 13 C-13.45730469 12.72027344 -12.91460937 12.44054688 -12.35546875 12.15234375 C-6.95931183 9.12855131 -4.85566868 6.91494391 -3 1 C-2.34 1.33 -1.68 1.66 -1 2 C-0.67 1.34 -0.34 0.68 0 0 Z " fill="#657A89" transform="translate(79,28)"/>
<path d="M0 0 C3.63 0 7.26 0 11 0 C10.67 0.66 10.34 1.32 10 2 C7.03 1.67 4.06 1.34 1 1 C1.33 1.99 1.66 2.98 2 4 C2.66 4 3.32 4 4 4 C4 4.66 4 5.32 4 6 C4.66 6 5.32 6 6 6 C6.625 8.875 6.625 8.875 7 12 C6.34 12.66 5.68 13.32 5 14 C4.01 14 3.02 14 2 14 C2 13.34 2 12.68 2 12 C1.34 12 0.68 12 0 12 C-1.53166168 7.91556885 -0.63081652 4.20544343 0 0 Z " fill="#D67653" transform="translate(29,50)"/>
<path d="M0 0 C1.60517097 0.08733576 3.20921662 0.19552224 4.8125 0.3125 C6.15248047 0.39951172 6.15248047 0.39951172 7.51953125 0.48828125 C10.30604 1.06313581 11.24135754 1.8206856 13 4 C12.67 4.66 12.34 5.32 12 6 C11.01 6 10.02 6 9 6 C8.01 6.495 8.01 6.495 7 7 C5.66397795 6.67761207 4.33108248 6.34221092 3 6 C1.25113019 5.93375493 -0.50002748 5.91447405 -2.25 5.9375 C-3.58804688 5.95103516 -3.58804688 5.95103516 -4.953125 5.96484375 C-5.62859375 5.97644531 -6.3040625 5.98804688 -7 6 C-7 5.34 -7 4.68 -7 4 C-2.545 3.505 -2.545 3.505 2 3 C2 2.34 2 1.68 2 1 C1.34 0.67 0.68 0.34 0 0 Z " fill="#406181" transform="translate(66,11)"/>
<path d="M0 0 C1.47906892 -0.02689216 2.95827483 -0.04634621 4.4375 -0.0625 C5.26121094 -0.07410156 6.08492187 -0.08570313 6.93359375 -0.09765625 C9 0 9 0 10 1 C10.4664311 6.3639576 10.4664311 6.3639576 8.625 8.875 C7 10 7 10 5 10 C5 8.35 5 6.7 5 5 C4.34 5 3.68 5 3 5 C3 4.34 3 3.68 3 3 C2.34 3 1.68 3 1 3 C0.67 3.99 0.34 4.98 0 6 C0 4.02 0 2.04 0 0 Z " fill="#D65C3B" transform="translate(30,51)"/>
<path d="M0 0 C0 3.3 0 6.6 0 10 C-0.99 10 -1.98 10 -3 10 C-3 9.34 -3 8.68 -3 8 C-3.66 8 -4.32 8 -5 8 C-5.3403125 6.824375 -5.3403125 6.824375 -5.6875 5.625 C-6.78125 2.78125 -6.78125 2.78125 -9.625 1.6875 C-10.40875 1.460625 -11.1925 1.23375 -12 1 C-12 0.67 -12 0.34 -12 0 C-7.66726186 -0.92844389 -4.33273814 -0.92844389 0 0 Z " fill="#D5603E" transform="translate(120,52)"/>
<path d="M0 0 C1.97909398 -0.02686553 3.95828971 -0.04633375 5.9375 -0.0625 C7.03964844 -0.07410156 8.14179688 -0.08570313 9.27734375 -0.09765625 C12 0 12 0 13 1 C13.04080783 2.99958364 13.04254356 5.00045254 13 7 C9.7 6.34 6.4 5.68 3 5 C2.67 4.01 2.34 3.02 2 2 C1.34 1.34 0.68 0.68 0 0 Z " fill="#D55F3D" transform="translate(6,50)"/>
<path d="M0 0 C0.33 2.64 0.66 5.28 1 8 C2.32 8.33 3.64 8.66 5 9 C4.67 6.03 4.34 3.06 4 0 C4.99 0 5.98 0 7 0 C7.33 3.63 7.66 7.26 8 11 C1.06640625 11.09765625 1.06640625 11.09765625 -1 11 C-2.58272601 9.41727399 -2.34735747 7.61965997 -2.5625 5.4375 C-2.64628906 4.61121094 -2.73007813 3.78492187 -2.81640625 2.93359375 C-2.87699219 2.29550781 -2.93757813 1.65742187 -3 1 C-1 0 -1 0 0 0 Z " fill="#6D808B" transform="translate(87,92)"/>
<path d="M0 0 C2.5 0.125 2.5 0.125 3.5 1.125 C3.6875 4.0625 3.6875 4.0625 3.5 7.125 C1.5 9.125 1.5 9.125 -1.125 9.25 C-1.90875 9.20875 -2.6925 9.1675 -3.5 9.125 C-3.59765625 2.97265625 -3.59765625 2.97265625 -3.5 1.125 C-2.5 0.125 -2.5 0.125 0 0 Z " fill="#F4E5BC" transform="translate(110.5,53.875)"/>
<path d="M0 0 C2.31 0 4.62 0 7 0 C5.35 3.3 3.7 6.6 2 10 C1.67 9.01 1.34 8.02 1 7 C-0.32 7.33 -1.64 7.66 -3 8 C-2.690625 7.236875 -2.38125 6.47375 -2.0625 5.6875 C-1.32106407 3.81210323 -0.63771783 1.91315348 0 0 Z " fill="#D37552" transform="translate(63,50)"/>
<path d="M0 0 C2.64 0 5.28 0 8 0 C8.33 0.99 8.66 1.98 9 3 C7.35 3 5.7 3 4 3 C4 5.64 4 8.28 4 11 C3.01 11 2.02 11 1 11 C0.67 7.37 0.34 3.74 0 0 Z " fill="#7B8B8E" transform="translate(27,92)"/>
<path d="M0 0 C1.32 0.66 2.64 1.32 4 2 C4.125 4.375 4.125 4.375 4 7 C3.34 7.66 2.68 8.32 2 9 C1.01 9 0.02 9 -1 9 C-1.625 5.625 -1.625 5.625 -2 2 C-1.34 1.34 -0.68 0.68 0 0 Z " fill="#E5DEBB" transform="translate(59,93)"/>
<path d="M0 0 C0.33 0 0.66 0 1 0 C0.96519531 0.77085938 0.93039062 1.54171875 0.89453125 2.3359375 C0.86746094 3.33882813 0.84039062 4.34171875 0.8125 5.375 C0.77769531 6.37273437 0.74289062 7.37046875 0.70703125 8.3984375 C0.85205078 9.68621094 0.85205078 9.68621094 1 11 C1.99 11.66 2.98 12.32 4 13 C1.35559361 13.8814688 -0.28060752 14.16174818 -3 14.1875 C-3.680625 14.20167969 -4.36125 14.21585938 -5.0625 14.23046875 C-7 14 -7 14 -10 12 C-8.02 12 -6.04 12 -4 12 C-4 11.01 -4 10.02 -4 9 C-2.68 9 -1.36 9 0 9 C0 6.03 0 3.06 0 0 Z " fill="#D3805B" transform="translate(13,67)"/>
<path d="M0 0 C2.97 0 5.94 0 9 0 C9.66 1.98 10.32 3.96 11 6 C8 5 8 5 5 3 C4.67 3.99 4.34 4.98 4 6 C2.62437146 4.71034824 1.29233607 3.37310707 0 2 C0 1.34 0 0.68 0 0 Z " fill="#D67451" transform="translate(44,50)"/>
<path d="M0 0 C0.33 0 0.66 0 1 0 C1 2.64 1 5.28 1 8 C1.66 8 2.32 8 3 8 C2.34 10.31 1.68 12.62 1 15 C3.31 15 5.62 15 8 15 C8 15.33 8 15.66 8 16 C3.38 16 -1.24 16 -6 16 C-3 14 -3 14 0 14 C0 9.38 0 4.76 0 0 Z " fill="#EFDDB3" transform="translate(20,65)"/>
<path d="M0 0 C0.33 1.32 0.66 2.64 1 4 C1.66 4 2.32 4 3 4 C3 4.66 3 5.32 3 6 C3.99 6 4.98 6 6 6 C6 8.31 6 10.62 6 13 C3.36 11.02 0.72 9.04 -2 7 C-1.34 4.69 -0.68 2.38 0 0 Z " fill="#E0A680" transform="translate(114,56)"/>
<path d="M0 0 C0.99 0.66 1.98 1.32 3 2 C0.69 2 -1.62 2 -4 2 C-4 2.66 -4 3.32 -4 4 C-8.455 4.495 -8.455 4.495 -13 5 C-12 2 -12 2 -9.875 0.8125 C-6.42658855 -0.16205106 -3.56887881 -0.26436139 0 0 Z " fill="#597288" transform="translate(72,10)"/>
<path d="M0 0 C2.97 0 5.94 0 9 0 C8.67 1.98 8.34 3.96 8 6 C7.67 6 7.34 6 7 6 C7 4.35 7 2.7 7 1 C6.34 1 5.68 1 5 1 C5 2.65 5 4.3 5 6 C3.68 6 2.36 6 1 6 C0.67 4.02 0.34 2.04 0 0 Z " fill="#B2B4A2" transform="translate(0,92)"/>
<path d="M0 0 C2.375 0.25 2.375 0.25 5 1 C6.3125 3.0625 6.3125 3.0625 7 5 C5.02 5 3.04 5 1 5 C0.67 5.66 0.34 6.32 0 7 C-0.66 5.68 -1.32 4.36 -2 3 C-1.34 3 -0.68 3 0 3 C0 2.01 0 1.02 0 0 Z " fill="#D9724E" transform="translate(113,65)"/>
<path d="M0 0 C0.33 0.66 0.66 1.32 1 2 C3.31 2 5.62 2 8 2 C8.33 3.32 8.66 4.64 9 6 C8.34 6 7.68 6 7 6 C7 5.34 7 4.68 7 4 C5.02 4 3.04 4 1 4 C1.95865509 6.33075929 1.95865509 6.33075929 5 8 C3.35 8 1.7 8 0 8 C0 5.36 0 2.72 0 0 Z " fill="#617683" transform="translate(0,100)"/>
<path d="M0 0 C1.32 0 2.64 0 4 0 C4 2.64 4 5.28 4 8 C2.68 8 1.36 8 0 8 C0 5.36 0 2.72 0 0 Z " fill="#EAE1BB" transform="translate(116,94)"/>
<path d="M0 0 C1.17571451 3.67410785 1.07366746 7.16929183 1 11 C0.01 10.34 -0.98 9.68 -2 9 C-2.33 10.98 -2.66 12.96 -3 15 C-3.33 15 -3.66 15 -4 15 C-4.45356243 8.53673535 -3.59378942 5.39068413 0 0 Z " fill="#D68B67" transform="translate(48,15)"/>
<path d="M0 0 C2.97 0 5.94 0 9 0 C9.33 0.99 9.66 1.98 10 3 C9.67 3.33 9.34 3.66 9 4 C7.47480724 3.91062197 5.95318071 3.75462854 4.4375 3.5625 C3.19806641 3.40974609 3.19806641 3.40974609 1.93359375 3.25390625 C1.29550781 3.17011719 0.65742187 3.08632812 0 3 C0 2.01 0 1.02 0 0 Z " fill="#D6613F" transform="translate(79,77)"/>
<path d="M0 0 C5.94 0 11.88 0 18 0 C18 0.33 18 0.66 18 1 C15.36 1 12.72 1 10 1 C9.566875 1.9590625 9.566875 1.9590625 9.125 2.9375 C8 5 8 5 6 6 C6.33 4.68 6.66 3.36 7 2 C4.03 1.505 4.03 1.505 1 1 C0.67 1.99 0.34 2.98 0 4 C0 2.68 0 1.36 0 0 Z " fill="#EBD3A9" transform="translate(62,49)"/>
<path d="M0 0 C2.31 0 4.62 0 7 0 C7 0.66 7 1.32 7 2 C5.68 2.33 4.36 2.66 3 3 C2.67 6.96 2.34 10.92 2 15 C1.67 15 1.34 15 1 15 C0.67 10.05 0.34 5.1 0 0 Z " fill="#667B89" transform="translate(113,92)"/>
<path d="M0 0 C2.6875 1.9375 2.6875 1.9375 5 4 C3.35 4.66 1.7 5.32 0 6 C0.33 6.66 0.66 7.32 1 8 C-2 7 -2 7 -3.25 5.0625 C-3.4975 4.381875 -3.745 3.70125 -4 3 C-3 1 -3 1 0 0 Z " fill="#D66D4B" transform="translate(50,30)"/>
<path d="M0 0 C2.64 0 5.28 0 8 0 C8.33 1.32 8.66 2.64 9 4 C6.03 3.67 3.06 3.34 0 3 C0 2.01 0 1.02 0 0 Z " fill="#F3E7C0" transform="translate(63,17)"/>
<path d="M0 0 C1.485 0.99 1.485 0.99 3 2 C3.1875 5.125 3.1875 5.125 3 8 C1.02 8.99 1.02 8.99 -1 10 C-1.02689216 8.52093108 -1.04634621 7.04172517 -1.0625 5.5625 C-1.07410156 4.73878906 -1.08570312 3.91507813 -1.09765625 3.06640625 C-1 1 -1 1 0 0 Z " fill="#54718C" transform="translate(78,21)"/>
<path d="M0 0 C0.33 0 0.66 0 1 0 C1.12375 0.763125 1.2475 1.52625 1.375 2.3125 C1.88102792 5.20267136 1.88102792 5.20267136 4 8 C4.33 8.99 4.66 9.98 5 11 C4.01 11.66 3.02 12.32 2 13 C-0.20914 9.68629 -0.22481553 8.6553979 -0.125 4.8125 C-0.10695312 3.91144531 -0.08890625 3.01039062 -0.0703125 2.08203125 C-0.04710937 1.39496094 -0.02390625 0.70789063 0 0 Z " fill="#EDDDB5" transform="translate(49,18)"/>
<path d="M0 0 C0 0.66 0 1.32 0 2 C-3.4019487 4.09350689 -6.05272412 4.17942163 -10 4 C-10 3.34 -10 2.68 -10 2 C-3.375 0 -3.375 0 0 0 Z " fill="#76878F" transform="translate(65,26)"/>
<path d="M0 0 C3.96 0 7.92 0 12 0 C12 0.33 12 0.66 12 1 C9.69 1 7.38 1 5 1 C5 1.66 5 2.32 5 3 C5.99 3.66 6.98 4.32 8 5 C6.35 5 4.7 5 3 5 C2.67 4.01 2.34 3.02 2 2 C1.34 1.34 0.68 0.68 0 0 Z " fill="#D37451" transform="translate(6,50)"/>
<path d="M0 0 C0.99 0.33 1.98 0.66 3 1 C3 3.31 3 5.62 3 8 C1.02 8.99 1.02 8.99 -1 10 C-0.73958333 7.98177083 -0.47916667 5.96354167 -0.21875 3.9453125 C0.0372485 1.99501656 0.0372485 1.99501656 0 0 Z " fill="#657986" transform="translate(62,93)"/>
<path d="M0 0 C0.33 1.32 0.66 2.64 1 4 C1.66 4.66 2.32 5.32 3 6 C3.66 5.34 4.32 4.68 5 4 C5 5.32 5 6.64 5 8 C2.69 8 0.38 8 -2 8 C-1.34 5.36 -0.68 2.72 0 0 Z " fill="#D37E5A" transform="translate(23,72)"/>
<path d="M0 0 C1.98 0.495 1.98 0.495 4 1 C4 2.32 4 3.64 4 5 C2.35 4.67 0.7 4.34 -1 4 C-0.67 2.68 -0.34 1.36 0 0 Z " fill="#7A7964" transform="translate(116,116)"/>
<path d="M0 0 C1.98 0.495 1.98 0.495 4 1 C4 1.99 4 2.98 4 4 C3.34 4 2.68 4 2 4 C2 4.66 2 5.32 2 6 C1.01 6 0.02 6 -1 6 C-0.67 4.02 -0.34 2.04 0 0 Z " fill="#D35E3D" transform="translate(63,50)"/>
<path d="M0 0 C1.98 0 3.96 0 6 0 C6.33 0.99 6.66 1.98 7 3 C4 4 4 4 1.8125 3.0625 C1.214375 2.711875 0.61625 2.36125 0 2 C0 1.34 0 0.68 0 0 Z " fill="#BEBEA5" transform="translate(1,104)"/>
<path d="M0 0 C0.66 1.32 1.32 2.64 2 4 C1.01 5.485 1.01 5.485 0 7 C-0.99 7 -1.98 7 -3 7 C-2.38722388 4.03824877 -1.74627478 2.61941217 0 0 Z " fill="#ECD3A9" transform="translate(34,57)"/>
<path d="M0 0 C1.134375 0.020625 2.26875 0.04125 3.4375 0.0625 C3.1075 1.0525 2.7775 2.0425 2.4375 3.0625 C0.58984375 3.79296875 0.58984375 3.79296875 -1.625 4.25 C-2.35847656 4.40855469 -3.09195313 4.56710938 -3.84765625 4.73046875 C-4.69650391 4.89482422 -4.69650391 4.89482422 -5.5625 5.0625 C-4.43693182 0.07784091 -4.43693182 0.07784091 0 0 Z " fill="#D4805C" transform="translate(65.5625,19.9375)"/>
<path d="M0 0 C1.32 0.99 2.64 1.98 4 3 C3.67 3.66 3.34 4.32 3 5 C2.01 5 1.02 5 0 5 C-0.99 5.495 -0.99 5.495 -2 6 C-4.125 5.0625 -4.125 5.0625 -6 4 C-4.35 4 -2.7 4 -1 4 C-0.67 2.68 -0.34 1.36 0 0 Z " fill="#506C87" transform="translate(75,12)"/>
<path d="M0 0 C0.99 0 1.98 0 3 0 C3.33 1.32 3.66 2.64 4 4 C2.02 4.33 0.04 4.66 -2 5 C-1.34 3.35 -0.68 1.7 0 0 Z " fill="#D36C4A" transform="translate(57,6)"/>
<path d="M0 0 C3.60654039 2.40436026 3.85452932 3.94679607 5 8 C4.01 8.33 3.02 8.66 2 9 C-0.29013653 5.5647952 -0.17842973 4.014669 0 0 Z " fill="#6B7B83" transform="translate(52,20)"/>
<path d="M0 0 C6.15234375 -0.09765625 6.15234375 -0.09765625 8 0 C9 1 9 1 9.0625 3.5625 C9.041875 4.366875 9.02125 5.17125 9 6 C8.443125 5.360625 7.88625 4.72125 7.3125 4.0625 C4.77933439 1.80319013 3.31658576 1.36850953 0 1 C0 0.67 0 0.34 0 0 Z " fill="#D56442" transform="translate(63,21)"/>
<path d="M0 0 C0.66 0 1.32 0 2 0 C2 1.32 2 2.64 2 4 C0.02 4.33 -1.96 4.66 -4 5 C-2.71937515 3.2925002 -1.38232443 1.62626404 0 0 Z " fill="#D45C3B" transform="translate(62,35)"/>
<path d="M0 0 C0.66 0 1.32 0 2 0 C2.33 1.65 2.66 3.3 3 5 C1.68 5 0.36 5 -1 5 C-1.33 4.01 -1.66 3.02 -2 2 C-1.34 1.34 -0.68 0.68 0 0 Z " fill="#D75A39" transform="translate(44,74)"/>
<path d="M0 0 C1.98 0.495 1.98 0.495 4 1 C3.67 1.99 3.34 2.98 3 4 C2.01 4.33 1.02 4.66 0 5 C-0.33 4.01 -0.66 3.02 -1 2 C-0.67 1.34 -0.34 0.68 0 0 Z " fill="#D45938" transform="translate(49,53)"/>
</svg>
