<?xml version="1.0" encoding="UTF-8"?>
<svg version="1.1" xmlns="http://www.w3.org/2000/svg" width="120" height="117">
<path d="M0 0 C39.6 0 79.2 0 120 0 C120 38.61 120 77.22 120 117 C80.4 117 40.8 117 0 117 C0 78.39 0 39.78 0 0 Z " fill="#F3E1AE" transform="translate(0,0)"/>
<path d="M0 0 C11.88 0 23.76 0 36 0 C36.1546875 8.0128125 36.1546875 8.0128125 36.3125 16.1875 C36.35802002 17.86481201 36.40354004 19.54212402 36.45043945 21.27026367 C36.46505289 22.61114506 36.47779154 23.95204876 36.48828125 25.29296875 C36.526651 26.32339294 36.526651 26.32339294 36.5657959 27.37463379 C36.56929901 31.25538277 36.1389647 32.83122737 33.6394043 35.86694336 C31.01305667 37.98944814 28.45376979 39.74047009 25.5 41.375 C24.12328125 42.16003906 24.12328125 42.16003906 22.71875 42.9609375 C18.46478413 44.5867348 16.07431858 43.45344615 11.9921875 41.73046875 C10.44917969 40.96669922 10.44917969 40.96669922 8.875 40.1875 C7.84117188 39.68605469 6.80734375 39.18460938 5.7421875 38.66796875 C2.90765225 36.94382836 1.51193021 35.93613751 0 33 C-0.29296875 29.765625 -0.29296875 29.765625 -0.1875 26.25 C-0.16042969 25.07953125 -0.13335937 23.9090625 -0.10546875 22.703125 C-0.07066406 21.81109375 -0.03585938 20.9190625 0 20 C0.63421875 20.0721875 1.2684375 20.144375 1.921875 20.21875 C8.7981186 20.90257533 15.65670434 21.16544939 22.5625 21.25 C23.44325195 21.27126953 24.32400391 21.29253906 25.23144531 21.31445312 C26.06385742 21.31896484 26.89626953 21.32347656 27.75390625 21.328125 C28.87261108 21.34214355 28.87261108 21.34214355 30.01391602 21.35644531 C32.45818481 21.11289221 32.45818481 21.11289221 35 18 C23.45 18 11.9 18 0 18 C0 16.35 0 14.7 0 13 C11.55 13 23.1 13 35 13 C35 12.01 35 11.02 35 10 C23.45 10 11.9 10 0 10 C0 6.7 0 3.4 0 0 Z " fill="#D49C55" transform="translate(42,16)"/>
<path d="M0 0 C6.06922323 4.11358463 9.6042734 9.08887101 12 16 C13.01299734 25.09341799 12.17931557 32.67798549 6.45703125 39.96484375 C1.21885489 45.63454036 -5.31803701 49.44462016 -13.078125 50.203125 C-21.18205642 50.37802999 -27.6372917 48.11783059 -34 43 C-41.37826796 34.439091 -42.80299359 28.35662367 -42 17 C-40.66082595 9.94401574 -36.60744247 4.72104232 -30.94921875 0.453125 C-21.61214017 -5.13342958 -9.55560183 -4.85254389 0 0 Z M-33 4 C-33 7.3 -33 10.6 -33 14 C-21.45 14 -9.9 14 2 14 C2 14.99 2 15.98 2 17 C-9.55 17 -21.1 17 -33 17 C-33 18.65 -33 20.3 -33 22 C-21.45 22 -9.9 22 2 22 C-1 25 -1 25 -3.63208008 25.35644531 C-4.66743896 25.34709961 -5.70279785 25.33775391 -6.76953125 25.328125 C-7.90583984 25.32296875 -9.04214844 25.3178125 -10.21289062 25.3125 C-11.40076172 25.291875 -12.58863281 25.27125 -13.8125 25.25 C-15.5769043 25.24226563 -15.5769043 25.24226563 -17.37695312 25.234375 C-22.71094297 25.18613089 -27.74482739 24.97948684 -33 24 C-33.77806895 32.29954066 -33.77806895 32.29954066 -31.25 39.9375 C-23.17655971 45.63436155 -23.17655971 45.63436155 -14.0078125 47.83984375 C-11.27365099 46.69617697 -8.60036598 45.49088545 -5.9375 44.1875 C-4.89464844 43.68605469 -3.85179687 43.18460938 -2.77734375 42.66796875 C0.16321428 40.90197961 1.3239029 39.9556883 3 37 C3.25609035 34.38071891 3.35090188 32.00293775 3.29296875 29.390625 C3.28994751 28.74593262 3.28692627 28.10124023 3.28381348 27.43701172 C3.26818112 25.04117704 3.226297 22.64557154 3.1875 20.25 C3.125625 14.8875 3.06375 9.525 3 4 C-8.88 4 -20.76 4 -33 4 Z " fill="#E0CE9B" transform="translate(75,12)"/>
<path d="M0 0 C6.81996382 5.6253103 10.4727758 12.9125582 11.37890625 21.65625 C11.74279526 33.39460505 9.21505781 40.46273172 1.21484375 48.984375 C-3.72313015 53.47819252 -9.25775151 56.59546509 -16 57 C-16.82371094 57.05027344 -17.64742187 57.10054688 -18.49609375 57.15234375 C-28.83301779 57.51076691 -36.29829221 54.93803634 -44 48 C-50.70602639 41.40017764 -53.81124446 34.29860421 -54.3125 24.875 C-54.12036666 15.22029956 -50.03837758 8.00403954 -43.44140625 1.16796875 C-30.32023576 -10.48363064 -14.04488894 -9.26327474 0 0 Z M-43 8.4375 C-48.51418905 15.84719153 -49.12476334 24.03149231 -48 33 C-45.02374799 40.76904405 -40.03698128 45.73929048 -32.875 49.75 C-25.56224663 52.92945799 -17.82409893 53.02867644 -10.3359375 50.23046875 C-3.47328361 46.61552565 2.74770394 40.89684518 5.44140625 33.51171875 C7.29705035 25.16780857 6.8501304 17.61652909 2.55078125 10.15625 C-1.47066474 4.56471805 -6.41941718 1.10334056 -13 -1 C-24.98525589 -2.46608635 -35.00319407 -1.24370472 -43 8.4375 Z " fill="#667A72" transform="translate(81,10)"/>
<path d="M0 0 C15.29707596 -0.43293611 15.29707596 -0.43293611 21.8515625 4.3515625 C24.34773567 7.93450495 23.45022657 12.84453043 23 17 C21.79593791 19.94995213 20.98274794 21.31352166 18.40625 23.11328125 C14.88937596 24.40927217 11.44108499 24.20912517 7.75 24.125 C5.1925 24.08375 2.635 24.0425 0 24 C0 16.08 0 8.16 0 0 Z " fill="#B96944" transform="translate(89,68)"/>
<path d="M0 0 C11.88 0 23.76 0 36 0 C36 3.3 36 6.6 36 10 C24.12 10 12.24 10 0 10 C0 6.7 0 3.4 0 0 Z " fill="#6B7D73" transform="translate(42,16)"/>
<path d="M0 0 C1.134375 0.020625 2.26875 0.04125 3.4375 0.0625 C5.77166411 4.49741182 7.66058105 9.02321499 9.47265625 13.6953125 C10.38883302 16.05573206 10.38883302 16.05573206 11.55859375 18.1796875 C12.4375 20.0625 12.4375 20.0625 12.4375 23.0625 C10.1275 23.0625 7.8175 23.0625 5.4375 23.0625 C5.1075 22.0725 4.7775 21.0825 4.4375 20.0625 C1.4675 19.7325 -1.5025 19.4025 -4.5625 19.0625 C-5.2225 20.3825 -5.8825 21.7025 -6.5625 23.0625 C-8.5425 23.0625 -10.5225 23.0625 -12.5625 23.0625 C-6.31679975 0.11082105 -6.31679975 0.11082105 0 0 Z " fill="#BA6440" transform="translate(62.5625,68.9375)"/>
<path d="M0 0 C1.98 0 3.96 0 6 0 C6.14546783 3.24952748 6.2341168 6.49821713 6.3125 9.75 C6.35439453 10.67039062 6.39628906 11.59078125 6.43945312 12.5390625 C6.56362164 19.39316431 6.56362164 19.39316431 3.60546875 22.578125 C-0.65301106 24.90209299 -3.05452689 25.32969821 -8 25 C-13.24095675 23.02228047 -13.24095675 23.02228047 -15.16015625 20.4375 C-16.43737772 16.73058747 -16.20883146 13.13849011 -16.125 9.25 C-16.11597656 8.45722656 -16.10695313 7.66445312 -16.09765625 6.84765625 C-16.07417012 4.89830719 -16.03830137 2.94911425 -16 1 C-14.02 1 -12.04 1 -10 1 C-9.93941406 2.14339844 -9.87882813 3.28679687 -9.81640625 4.46484375 C-9.73201572 5.95574305 -9.64736698 7.44662775 -9.5625 8.9375 C-9.52318359 9.69224609 -9.48386719 10.44699219 -9.44335938 11.22460938 C-9.55961976 14.91944187 -9.55961976 14.91944187 -8 18 C-5 18.16666667 -5 18.16666667 -2 18 C0.11925604 15.88074396 -0.58168983 11.3803907 -0.4375 8.4375 C-0.39431641 7.63119141 -0.35113281 6.82488281 -0.30664062 5.99414062 C-0.20024738 3.99631195 -0.09959112 1.9981793 0 0 Z " fill="#BA6542" transform="translate(21,68)"/>
<path d="M0 0 C2 2 2 2 2.125 4.625 C2.08375 5.40875 2.0425 6.1925 2 7 C-2.455 6.01 -2.455 6.01 -7 5 C-4.70633526 9.58732948 -3.47589756 9.94854695 1 12 C3 14 3 14 3.3125 17.4375 C3 21 3 21 1.82421875 22.70703125 C-0.69262546 24.49091869 -2.44424383 24.33214398 -5.5 24.25 C-6.4590625 24.23453125 -7.418125 24.2190625 -8.40625 24.203125 C-11 24 -11 24 -14 23 C-14 21.02 -14 19.04 -14 17 C-13.278125 17.33 -12.55625 17.66 -11.8125 18 C-8.98302573 19.00603529 -6.97104534 19.16977402 -4 19 C-3.67 18.01 -3.34 17.02 -3 16 C-3.721875 15.896875 -4.44375 15.79375 -5.1875 15.6875 C-8.27746686 14.93217477 -10.39558686 13.80862024 -13 12 C-14.43735246 9.12529507 -14.38172649 7.18105412 -14 4 C-10.23966181 -0.60944682 -5.59908522 -0.9460144 0 0 Z " fill="#B95F3C" transform="translate(45,68)"/>
<path d="M0 0 C3.81014932 1.27004977 4.17627457 2.51113397 6 6 C9.01768077 12.45540502 9.07239113 19.7232785 7.34765625 26.6015625 C5.24930564 31.84293612 1.85386952 36.9556871 -3 40 C-5.21875 39.6796875 -5.21875 39.6796875 -7 39 C-5.87952194 35.63856582 -4.50292817 34.42471166 -2 32 C-0.55037817 29.10075634 -0.77873519 26.47699645 -0.68359375 23.2421875 C-0.66281265 22.57913605 -0.64203156 21.91608459 -0.62062073 21.23294067 C-0.55520769 19.11373306 -0.49627895 16.994401 -0.4375 14.875 C-0.39430691 13.43878919 -0.35069236 12.00259098 -0.30664062 10.56640625 C-0.19953501 7.04440406 -0.09824425 3.52226175 0 0 Z " fill="#EEDBA7" transform="translate(79,17)"/>
<path d="M0 0 C2.76276177 0.52268466 5.3260876 1.10869587 8 2 C8 2.99 8 3.98 8 5 C8.66 5 9.32 5 10 5 C10 5.66 10 6.32 10 7 C17.54047904 8.07859862 17.54047904 8.07859862 25 7 C25 6.34 25 5.68 25 5 C25.99 5 26.98 5 28 5 C28.33 3.68 28.66 2.36 29 1 C31.31 1 33.62 1 36 1 C35.44899987 4.85700092 33.85083777 6.43084637 31 9 C28.37890625 10.73828125 28.37890625 10.73828125 25.5625 12.3125 C24.63566406 12.84488281 23.70882812 13.37726562 22.75390625 13.92578125 C18.4720608 15.59600465 16.10989812 14.46846349 11.9921875 12.73046875 C10.96351562 12.22128906 9.93484375 11.71210937 8.875 11.1875 C7.84117188 10.68605469 6.80734375 10.18460938 5.7421875 9.66796875 C2.97574099 7.98524416 1.55644797 6.81770754 0 4 C0 2.68 0 1.36 0 0 Z " fill="#64746B" transform="translate(42,45)"/>
<path d="M0 0 C0.33 0 0.66 0 1 0 C1 6.6 1 13.2 1 20 C0.01 19.67 -0.98 19.34 -2 19 C-1.34 19 -0.68 19 0 19 C0 16.69 0 14.38 0 12 C-0.721875 12.33 -1.44375 12.66 -2.1875 13 C-5.01697427 14.00603529 -7.02895466 14.16977402 -10 14 C-10.33 13.34 -10.66 12.68 -11 12 C-10.28972656 11.87882812 -9.57945313 11.75765625 -8.84765625 11.6328125 C-7.92855469 11.46523438 -7.00945312 11.29765625 -6.0625 11.125 C-4.68771484 10.88136719 -4.68771484 10.88136719 -3.28515625 10.6328125 C-2.53105469 10.42398438 -1.77695313 10.21515625 -1 10 C-0.67 9.34 -0.34 8.68 0 8 C-11.55 8 -23.1 8 -35 8 C-35 6.35 -35 4.7 -35 3 C-23.45 3 -11.9 3 0 3 C0 2.01 0 1.02 0 0 Z " fill="#C18054" transform="translate(77,26)"/>
<path d="M0 0 C0 9.24 0 18.48 0 28 C-0.99 28.33 -1.98 28.66 -3 29 C-7.93237221 24.22673657 -7.93237221 24.22673657 -8.16796875 19.953125 C-8.17441406 18.73109375 -8.18085937 17.5090625 -8.1875 16.25 C-8.20167969 15.03828125 -8.21585938 13.8265625 -8.23046875 12.578125 C-7.93693736 8.02092586 -7.40803933 4.32003687 -4 1.125 C-2 0 -2 0 0 0 Z " fill="#F0DDAA" transform="translate(41,20)"/>
<path d="M0 0 C-0.66 0 -1.32 0 -2 0 C-2 0.99 -2 1.98 -2 3 C-0.68 3 0.64 3 2 3 C2.33 1.68 2.66 0.36 3 -1 C5.97 -1 8.94 -1 12 -1 C12.1875 2.375 12.1875 2.375 12 6 C11.01 6.66 10.02 7.32 9 8 C9 7.34 9 6.68 9 6 C7.35 6.33 5.7 6.66 4 7 C3.67 6.34 3.34 5.68 3 5 C-4.92 5 -12.84 5 -21 5 C-21 3.02 -21 1.04 -21 -1 C-13.977369 -3.006466 -6.85780175 -2.28593392 0 0 Z " fill="#858B75" transform="translate(71,98)"/>
<path d="M0 0 C1.37478516 0.01740234 1.37478516 0.01740234 2.77734375 0.03515625 C3.69644531 0.04417969 4.61554687 0.05320312 5.5625 0.0625 C6.27277344 0.07410156 6.98304687 0.08570312 7.71484375 0.09765625 C7.71484375 1.08765625 7.71484375 2.07765625 7.71484375 3.09765625 C8.37484375 3.09765625 9.03484375 3.09765625 9.71484375 3.09765625 C9.71484375 2.43765625 9.71484375 1.77765625 9.71484375 1.09765625 C11.36484375 1.09765625 13.01484375 1.09765625 14.71484375 1.09765625 C14.38484375 2.74765625 14.05484375 4.39765625 13.71484375 6.09765625 C14.37484375 6.42765625 15.03484375 6.75765625 15.71484375 7.09765625 C13.73484375 7.09765625 11.75484375 7.09765625 9.71484375 7.09765625 C9.71484375 6.43765625 9.71484375 5.77765625 9.71484375 5.09765625 C9.05484375 5.09765625 8.39484375 5.09765625 7.71484375 5.09765625 C7.71484375 5.75765625 7.71484375 6.41765625 7.71484375 7.09765625 C6.06484375 7.09765625 4.41484375 7.09765625 2.71484375 7.09765625 C2.71484375 5.77765625 2.71484375 4.45765625 2.71484375 3.09765625 C1.72484375 3.09765625 0.73484375 3.09765625 -0.28515625 3.09765625 C-0.28515625 4.41765625 -0.28515625 5.73765625 -0.28515625 7.09765625 C-0.94515625 7.09765625 -1.60515625 7.09765625 -2.28515625 7.09765625 C-2.28515625 6.43765625 -2.28515625 5.77765625 -2.28515625 5.09765625 C-2.94515625 5.09765625 -3.60515625 5.09765625 -4.28515625 5.09765625 C-4.28515625 5.75765625 -4.28515625 6.41765625 -4.28515625 7.09765625 C-8.61848958 7.09765625 -12.95182292 7.09765625 -17.28515625 7.09765625 C-17.28515625 6.43765625 -17.28515625 5.77765625 -17.28515625 5.09765625 C-17.94515625 5.09765625 -18.60515625 5.09765625 -19.28515625 5.09765625 C-19.28515625 5.75765625 -19.28515625 6.41765625 -19.28515625 7.09765625 C-19.94515625 7.09765625 -20.60515625 7.09765625 -21.28515625 7.09765625 C-21.28515625 5.11765625 -21.28515625 3.13765625 -21.28515625 1.09765625 C-18.64515625 1.09765625 -16.00515625 1.09765625 -13.28515625 1.09765625 C-12.95515625 1.75765625 -12.62515625 2.41765625 -12.28515625 3.09765625 C-11.95515625 2.43765625 -11.62515625 1.77765625 -11.28515625 1.09765625 C-9.98578125 1.11828125 -8.68640625 1.13890625 -7.34765625 1.16015625 C-5.99349992 1.18165079 -4.63759542 1.16913824 -3.28515625 1.09765625 C-2.28515625 0.09765625 -2.28515625 0.09765625 0 0 Z " fill="#A0A081" transform="translate(26.28515625,95.90234375)"/>
<path d="M0 0 C2.475 0.495 2.475 0.495 5 1 C4.01 3.64 3.02 6.28 2 9 C5.465 8.505 5.465 8.505 9 8 C9.33 8.99 9.66 9.98 10 11 C9.34 11 8.68 11 8 11 C8 11.66 8 12.32 8 13 C6.125 14.0625 6.125 14.0625 4 15 C3.34 14.67 2.68 14.34 2 14 C2 15.98 2 17.96 2 20 C0.68 19.67 -0.64 19.34 -2 19 C-2 19.66 -2 20.32 -2 21 C-3.98 20.34 -5.96 19.68 -8 19 C-8 17.68 -8 16.36 -8 15 C-9.32 14.34 -10.64 13.68 -12 13 C-11.030625 12.87625 -10.06125 12.7525 -9.0625 12.625 C-8.051875 12.41875 -7.04125 12.2125 -6 12 C-5.67 11.34 -5.34 10.68 -5 10 C-8.3 10 -11.6 10 -15 10 C-15.33 9.34 -15.66 8.68 -16 8 C-15.08476563 8.02320312 -14.16953125 8.04640625 -13.2265625 8.0703125 C-11.44378906 8.09738281 -11.44378906 8.09738281 -9.625 8.125 C-7.84996094 8.15980469 -7.84996094 8.15980469 -6.0390625 8.1953125 C-2.88846183 8.32866229 -2.88846183 8.32866229 -1 6 C-0.60235737 4.01178687 -0.26224651 2.01055661 0 0 Z " fill="#E5D09E" transform="translate(48,83)"/>
<path d="M0 0 C1.98 0 3.96 0 6 0 C7 1 7 1 7.11352539 3.31665039 C7.10828857 4.31688232 7.10305176 5.31711426 7.09765625 6.34765625 C7.09282227 7.96704102 7.09282227 7.96704102 7.08789062 9.61914062 C7.07951172 10.75544922 7.07113281 11.89175781 7.0625 13.0625 C7.05798828 14.20267578 7.05347656 15.34285156 7.04882812 16.51757812 C7.03699747 19.34510351 7.0205141 22.1725264 7 25 C4.69 25 2.38 25 0 25 C0 16.75 0 8.5 0 0 Z " fill="#BF724C" transform="translate(78,68)"/>
<path d="M0 0 C0.68191406 -0.01611328 1.36382812 -0.03222656 2.06640625 -0.04882812 C7.93823778 -0.05442035 11.89723596 1.69861798 17.125 4.3125 C17.125 4.9725 17.125 5.6325 17.125 6.3125 C5.905 6.3125 -5.315 6.3125 -16.875 6.3125 C-11.33625572 0.77375572 -7.65095082 -0.03575211 0 0 Z " fill="#F0DDA8" transform="translate(59.875,8.6875)"/>
<path d="M0 0 C3.63 0 7.26 0 11 0 C10.67 0.99 10.34 1.98 10 3 C8.35 3 6.7 3 5 3 C5.33 7.95 5.66 12.9 6 18 C8.31 18.33 10.62 18.66 13 19 C13 19.99 13 20.98 13 22 C6.565 22.495 6.565 22.495 0 23 C0 15.41 0 7.82 0 0 Z " fill="#BB5C3A" transform="translate(90,69)"/>
<path d="M0 0 C6 0 6 0 8.875 1.5625 C11 4 11 4 11.5 7.5625 C11 11 11 11 10 12.9375 C6.73357754 14.67278693 3.65648548 14.17982715 0 14 C0 9.38 0 4.76 0 0 Z " fill="#EAD4A1" transform="translate(95,73)"/>
<path d="M0 0 C11.22 0 22.44 0 34 0 C33 3 33 3 31 4 C26.73411157 4.24450473 22.45960266 4.18520687 18.1875 4.1875 C16.40375977 4.20586914 16.40375977 4.20586914 14.58398438 4.22460938 C13.43607422 4.22654297 12.28816406 4.22847656 11.10546875 4.23046875 C10.05512451 4.23457764 9.00478027 4.23868652 7.92260742 4.24291992 C4.91151189 3.99264509 2.72579396 3.26818373 0 2 C0 1.34 0 0.68 0 0 Z " fill="#E7D29D" transform="translate(43,34)"/>
<path d="M0 0 C0.33 0.33 0.66 0.66 1 1 C2.69141656 0.91036938 4.37959602 0.75422324 6.0625 0.5625 C6.98160156 0.46066406 7.90070313 0.35882813 8.84765625 0.25390625 C9.91306641 0.12822266 9.91306641 0.12822266 11 0 C11 2.31 11 4.62 11 7 C8.36 7.66 5.72 8.32 3 9 C2.67 8.01 2.34 7.02 2 6 C0.19747131 5.29805007 0.19747131 5.29805007 -2 5 C-2.86625 4.79375 -3.7325 4.5875 -4.625 4.375 C-7.0096873 3.76266107 -7.0096873 3.76266107 -9 5 C-9 3.68 -9 2.36 -9 1 C-6.01787087 -0.49106457 -3.28390342 -0.11941467 0 0 Z " fill="#DDAB62" transform="translate(66,38)"/>
<path d="M0 0 C0.33 0 0.66 0 1 0 C1 3.96 1 7.92 1 12 C2.32 11.01 3.64 10.02 5 9 C5.5259375 9.6496875 5.5259375 9.6496875 6.0625 10.3125 C8.78485635 12.68358456 11.64758216 13.6716835 15 15 C14.67 16.32 14.34 17.64 14 19 C7.375 18.25 7.375 18.25 4 16 C4 17.98 4 19.96 4 22 C3.67 22 3.34 22 3 22 C2.67 20.35 2.34 18.7 2 17 C1.34 17.33 0.68 17.66 0 18 C0 12.06 0 6.12 0 0 Z " fill="#E6D19E" transform="translate(27,69)"/>
<path d="M0 0 C0.66 0.33 1.32 0.66 2 1 C2 1.99 2 2.98 2 4 C4.31 4 6.62 4 9 4 C7.02 4.99 7.02 4.99 5 6 C6.65 6.33 8.3 6.66 10 7 C10 7.33 10 7.66 10 8 C7.03 8 4.06 8 1 8 C0.67 9.32 0.34 10.64 0 12 C-1 13 -1 13 -4.0625 13.0625 C-5.031875 13.041875 -6.00125 13.02125 -7 13 C-6.57781184 11.3501725 -6.13675575 9.70516335 -5.6875 8.0625 C-5.44386719 7.14597656 -5.20023438 6.22945313 -4.94921875 5.28515625 C-4.47935547 4.15400391 -4.47935547 4.15400391 -4 3 C-3.01 2.67 -2.02 2.34 -1 2 C-0.67 1.34 -0.34 0.68 0 0 Z " fill="#B9613E" transform="translate(57,79)"/>
<path d="M0 0 C10.56 0 21.12 0 32 0 C32 0.33 32 0.66 32 1 C25.07 1 18.14 1 11 1 C11 1.66 11 2.32 11 3 C8.69 3.33 6.38 3.66 4 4 C3.67 4.99 3.34 5.98 3 7 C3.928125 6.79375 4.85625 6.5875 5.8125 6.375 C9 6 9 6 12 8 C9.11788698 8.96070434 7.30149956 9.10581883 4.3125 9.0625 C2.889375 9.041875 1.46625 9.02125 0 9 C0 6.03 0 3.06 0 0 Z " fill="#5E7977" transform="translate(43,16)"/>
<path d="M0 0 C1.66796875 1.296875 1.66796875 1.296875 2.66796875 6.296875 C-2.94203125 5.966875 -8.55203125 5.636875 -14.33203125 5.296875 C-14.33203125 4.966875 -14.33203125 4.636875 -14.33203125 4.296875 C-11.36203125 4.296875 -8.39203125 4.296875 -5.33203125 4.296875 C-5.66203125 3.306875 -5.99203125 2.316875 -6.33203125 1.296875 C-7.94078125 1.7609375 -7.94078125 1.7609375 -9.58203125 2.234375 C-12.16069347 2.96499596 -14.72715227 3.67170404 -17.33203125 4.296875 C-17.66203125 3.636875 -17.99203125 2.976875 -18.33203125 2.296875 C-20.3566638 1.64474208 -20.3566638 1.64474208 -22.33203125 1.296875 C-15.44025711 -1.26750608 -7.11550279 -2.14537772 0 0 Z " fill="#758171" transform="translate(69.33203125,3.703125)"/>
<path d="M0 0 C5.37992836 0.33990833 9.53273547 0.68557793 14 4 C14.33 3.34 14.66 2.68 15 2 C15.66 2.33 16.32 2.66 17 3 C16.67 2.01 16.34 1.02 16 0 C16.66 0 17.32 0 18 0 C18 0.66 18 1.32 18 2 C18.99 2.33 19.98 2.66 21 3 C20.67 3.99 20.34 4.98 20 6 C14.23529888 8.47058619 10.73947543 7.81246592 5 6 C5 5.34 5 4.68 5 4 C4.34 4 3.68 4 3 4 C3 3.01 3 2.02 3 1 C2.01 0.67 1.02 0.34 0 0 Z " fill="#B17F44" transform="translate(47,46)"/>
<path d="M0 0 C0.87785156 -0.01675781 1.75570312 -0.03351562 2.66015625 -0.05078125 C3.41167969 0.06910156 4.16320312 0.18898438 4.9375 0.3125 C6.9375 3.3125 6.9375 3.3125 6.9375 6.3125 C5.6175 6.3125 4.2975 6.3125 2.9375 6.3125 C2.6075 5.6525 2.2775 4.9925 1.9375 4.3125 C1.6075 4.9725 1.2775 5.6325 0.9375 6.3125 C-2.88234796 7.09061718 -5.33090331 7.55636556 -9.0625 6.3125 C-8.75 4.4375 -8.75 4.4375 -8.0625 2.3125 C-4.83214467 0.15892978 -3.75116542 0.01657363 0 0 Z " fill="#868F7B" transform="translate(68.0625,16.6875)"/>
<path d="M0 0 C1.01320313 0.10828125 1.01320313 0.10828125 2.046875 0.21875 C2.93890625 0.3115625 3.8309375 0.404375 4.75 0.5 C5.63171875 0.5928125 6.5134375 0.685625 7.421875 0.78125 C10.23304835 1.05636313 10.23304835 1.05636313 14 1 C13.49396008 3.16874252 13.00016187 4.99967627 12 7 C8.04 7 4.08 7 0 7 C0 4.69 0 2.38 0 0 Z " fill="#A2A282" transform="translate(91,96)"/>
<path d="M0 0 C0.72703125 0.0721875 1.4540625 0.144375 2.203125 0.21875 C9.49220248 0.89158792 16.68214066 1.11677435 24 1 C24 1.33 24 1.66 24 2 C19.545 2.495 19.545 2.495 15 3 C15.33 3.99 15.66 4.98 16 6 C17.0828125 5.6596875 17.0828125 5.6596875 18.1875 5.3125 C21.84597793 4.90600245 23.11002187 5.79449037 26 8 C27.8125 10.1875 27.8125 10.1875 29 12 C28.34 12.66 27.68 13.32 27 14 C26.278125 13.195625 25.55625 12.39125 24.8125 11.5625 C21.93317651 8.93911638 20.80192473 8.1949705 17 8 C14.76832815 8.36856864 14.76832815 8.36856864 13 9 C13 7 13 5 13 3 C11.7625 3.020625 10.525 3.04125 9.25 3.0625 C6.3359175 3.06766681 3.79046673 2.93015558 1 2 C1 4.31 1 6.62 1 9 C0.67 9 0.34 9 0 9 C0 6.03 0 3.06 0 0 Z " fill="#B2844B" transform="translate(42,36)"/>
<path d="M0 0 C2.64 0 5.28 0 8 0 C8.33 0.66 8.66 1.32 9 2 C9.33 1.34 9.66 0.68 10 0 C10.99 0.33 11.98 0.66 13 1 C12.34 1 11.68 1 11 1 C11 2.32 11 3.64 11 5 C11.66 5.33 12.32 5.66 13 6 C10 6 7 6 4 6 C4 5.34 4 4.68 4 4 C3.34 4 2.68 4 2 4 C2 4.66 2 5.32 2 6 C1.34 6 0.68 6 0 6 C0 4.02 0 2.04 0 0 Z " fill="#7B8572" transform="translate(5,97)"/>
<path d="M0 0 C0.79921875 0.00902344 1.5984375 0.01804687 2.421875 0.02734375 C3.02515625 0.03894531 3.6284375 0.05054687 4.25 0.0625 C3.26 0.3925 2.27 0.7225 1.25 1.0625 C1.25 2.7125 1.25 4.3625 1.25 6.0625 C0.26 6.0625 -0.73 6.0625 -1.75 6.0625 C-2.08 4.4125 -2.41 2.7625 -2.75 1.0625 C-2.75 3.0425 -2.75 5.0225 -2.75 7.0625 C-4.73 7.0625 -6.71 7.0625 -8.75 7.0625 C-8.75 5.0825 -8.75 3.1025 -8.75 1.0625 C-5.75519083 0.1901588 -3.11424089 -0.04579766 0 0 Z " fill="#C4BA90" transform="translate(58.75,95.9375)"/>
<path d="M0 0 C1.45792884 -0.05399736 2.91642712 -0.09279177 4.375 -0.125 C5.18710937 -0.14820312 5.99921875 -0.17140625 6.8359375 -0.1953125 C9 0 9 0 11 2 C11.125 4.625 11.125 4.625 11 7 C6.545 6.01 6.545 6.01 2 5 C1.67 5.99 1.34 6.98 1 8 C0.375 6.1875 0.375 6.1875 0 4 C0.66 3.01 1.32 2.02 2 1 C1.34 0.67 0.68 0.34 0 0 Z " fill="#B96C47" transform="translate(36,68)"/>
<path d="M0 0 C-1 3 -1 3 -3 4 C-5.69013339 4.18704404 -8.29686177 4.08581391 -11 4 C-11.33 3.67 -11.66 3.34 -12 3 C-13.51469448 2.76807135 -15.03754562 2.58784762 -16.5625 2.4375 C-17.38878906 2.35371094 -18.21507812 2.26992188 -19.06640625 2.18359375 C-19.70449219 2.12300781 -20.34257813 2.06242187 -21 2 C-21 1.67 -21 1.34 -21 1 C-13.97360585 0.25194283 -7.06608191 -0.13794954 0 0 Z " fill="#EDD8A3" transform="translate(77,34)"/>
<path d="M0 0 C1.4540625 0.0309375 1.4540625 0.0309375 2.9375 0.0625 C3.125 3.4375 3.125 3.4375 2.9375 7.0625 C1.9475 7.7225 0.9575 8.3825 -0.0625 9.0625 C-0.0625 8.4025 -0.0625 7.7425 -0.0625 7.0625 C-1.7125 7.3925 -3.3625 7.7225 -5.0625 8.0625 C-4.046875 0.08258929 -4.046875 0.08258929 0 0 Z " fill="#D9CA9B" transform="translate(80.0625,96.9375)"/>
<path d="M0 0 C0.66 0.33 1.32 0.66 2 1 C2.33 1.99 2.66 2.98 3 4 C-2.15708731 6.69575019 -5.93908858 8.14795458 -11.75 8.0625 C-12.54921875 8.05347656 -13.3484375 8.04445313 -14.171875 8.03515625 C-14.77515625 8.02355469 -15.3784375 8.01195312 -16 8 C-16 7.67 -16 7.34 -16 7 C-13.36 6.67 -10.72 6.34 -8 6 C-8 5.34 -8 4.68 -8 4 C-6.71349294 3.30289269 -5.42059335 2.61757124 -4.125 1.9375 C-3.40570313 1.55464844 -2.68640625 1.17179687 -1.9453125 0.77734375 C-1.30335937 0.52082031 -0.66140625 0.26429687 0 0 Z " fill="#DECC9A" transform="translate(71,54)"/>
<path d="M0 0 C5.41538462 -0.36923077 5.41538462 -0.36923077 8.375 1.5 C8.91125 1.995 9.4475 2.49 10 3 C9.67 4.65 9.34 6.3 9 8 C7.67968405 7.43457996 6.3688699 6.84693528 5.0625 6.25 C3.96615234 5.76273437 3.96615234 5.76273437 2.84765625 5.265625 C1 4 1 4 0.24609375 1.859375 C0.16488281 1.24578125 0.08367188 0.6321875 0 0 Z " fill="#EAD5A1" transform="translate(38,73)"/>
<path d="M0 0 C0 2.31 0 4.62 0 7 C-2.64 7.66 -5.28 8.32 -8 9 C-8 8.01 -8 7.02 -8 6 C-7.01 6.33 -6.02 6.66 -5 7 C-5.33 5.35 -5.66 3.7 -6 2 C-2.25 0 -2.25 0 0 0 Z " fill="#D39952" transform="translate(77,38)"/>
<path d="M0 0 C10.56 0 21.12 0 32 0 C32 0.33 32 0.66 32 1 C25.07 1 18.14 1 11 1 C11 1.66 11 2.32 11 3 C6.91281305 3.24042276 3.82320557 2.42258812 0 1 C0 0.67 0 0.34 0 0 Z " fill="#596F6B" transform="translate(43,16)"/>
<path d="M0 0 C8.25 0 16.5 0 25 0 C25 0.99 25 1.98 25 3 C22.69 3 20.38 3 18 3 C18 2.34 18 1.68 18 1 C12.06 1.33 6.12 1.66 0 2 C0 1.34 0 0.68 0 0 Z " fill="#C26843" transform="translate(53,30)"/>
<path d="M0 0 C1.32 0 2.64 0 4 0 C4 4.62 4 9.24 4 14 C3.34 13.67 2.68 13.34 2 13 C2 11.02 2 9.04 2 7 C1.34 7 0.68 7 0 7 C0 4.69 0 2.38 0 0 Z " fill="#BB5A38" transform="translate(6,69)"/>
<path d="M0 0 C0.103125 0.639375 0.20625 1.27875 0.3125 1.9375 C0.539375 2.618125 0.76625 3.29875 1 4 C1.99 4.33 2.98 4.66 4 5 C3.67 9.29 3.34 13.58 3 18 C2.67 18 2.34 18 2 18 C2 14.7 2 11.4 2 8 C0.68 8.33 -0.64 8.66 -2 9 C-1.125 2.25 -1.125 2.25 0 0 Z " fill="#7F8875" transform="translate(30,21)"/>
<path d="M0 0 C3.3 0 6.6 0 10 0 C9.67 1.32 9.34 2.64 9 4 C5.7 4 2.4 4 -1 4 C-0.67 2.68 -0.34 1.36 0 0 Z " fill="#989B7F" transform="translate(47,19)"/>
<path d="M0 0 C0.33 0.66 0.66 1.32 1 2 C1.66 2 2.32 2 3 2 C3 1.34 3 0.68 3 0 C4.65 0 6.3 0 8 0 C7.67 1.65 7.34 3.3 7 5 C7.66 5.33 8.32 5.66 9 6 C7.02 6 5.04 6 3 6 C3 5.34 3 4.68 3 4 C2.34 4 1.68 4 1 4 C0.67 4.66 0.34 5.32 0 6 C0 4.02 0 2.04 0 0 Z " fill="#818974" transform="translate(33,97)"/>
<path d="M0 0 C2.97 0.99 5.94 1.98 9 3 C8.01 3.495 8.01 3.495 7 4 C7 4.66 7 5.32 7 6 C3.98968256 6.93423645 3.13349732 7.04449911 0 6 C0 4.02 0 2.04 0 0 Z " fill="#B96A46" transform="translate(31,85)"/>
<path d="M0 0 C0.33 1.32 0.66 2.64 1 4 C1.66 4 2.32 4 3 4 C3 2.68 3 1.36 3 0 C4.32 0 5.64 0 7 0 C7 1.98 7 3.96 7 6 C4.69 6 2.38 6 0 6 C0 4.02 0 2.04 0 0 Z " fill="#8C927A" transform="translate(106,97)"/>
<path d="M0 0 C3.48331435 3.01887244 4.79157144 5.56909529 6 10 C3 9 3 9 1 6 C0.34 5.67 -0.32 5.34 -1 5 C-0.67 3.35 -0.34 1.7 0 0 Z M1 7 C1.66 7.99 2.32 8.98 3 10 C2.34 10.99 1.68 11.98 1 13 C0.61781233 11.34385343 0.28604898 9.67542976 0 8 C0.33 7.67 0.66 7.34 1 7 Z " fill="#728173" transform="translate(84,14)"/>
<path d="M0 0 C2.64 0 5.28 0 8 0 C7.49396008 2.16874252 7.00016187 3.99967627 6 6 C4.02 6 2.04 6 0 6 C0.66 5.67 1.32 5.34 2 5 C2 3.68 2 2.36 2 1 C1.34 0.67 0.68 0.34 0 0 Z " fill="#878E78" transform="translate(97,97)"/>
<path d="M0 0 C1.98 0.66 3.96 1.32 6 2 C5.34 3.65 4.68 5.3 4 7 C2.68 6.34 1.36 5.68 0 5 C0 3.35 0 1.7 0 0 Z " fill="#627973" transform="translate(43,46)"/>
<path d="M0 0 C1.65 0 3.3 0 5 0 C5 1.98 5 3.96 5 6 C3.35 6 1.7 6 0 6 C0 4.02 0 2.04 0 0 Z " fill="#848B74" transform="translate(50,97)"/>
<path d="M0 0 C1.32 0 2.64 0 4 0 C4.33 1.65 4.66 3.3 5 5 C3.35 5.66 1.7 6.32 0 7 C0 4.69 0 2.38 0 0 Z " fill="#CF944D" transform="translate(43,38)"/>
<path d="M0 0 C1.65 0 3.3 0 5 0 C5 1.98 5 3.96 5 6 C4.67 5.34 4.34 4.68 4 4 C3.34 4 2.68 4 2 4 C2 4.66 2 5.32 2 6 C1.34 6 0.68 6 0 6 C0 4.02 0 2.04 0 0 Z " fill="#94967B" transform="translate(5,97)"/>
<path d="M0 0 C0 0.99 0 1.98 0 3 C0.99 3.33 1.98 3.66 3 4 C3 3.01 3 2.02 3 1 C3.66 1 4.32 1 5 1 C3.75023244 4.65316671 3.32901247 5.78065836 0 8 C-0.99 7.01 -1.98 6.02 -3 5 C-1.125 1.125 -1.125 1.125 0 0 Z " fill="#717E70" transform="translate(36,13)"/>
<path d="M0 0 C-0.25 2.375 -0.25 2.375 -1 5 C-3.0625 6.3125 -3.0625 6.3125 -5 7 C-5 5.02 -5 3.04 -5 1 C-3 0 -3 0 0 0 Z " fill="#5F7672" transform="translate(81,56)"/>
<path d="M0 0 C0.99 0.33 1.98 0.66 3 1 C3 1.66 3 2.32 3 3 C4.32 3.33 5.64 3.66 7 4 C4.25 4.6875 4.25 4.6875 1 5 C-1.375 3.5625 -1.375 3.5625 -3 2 C-2.01 1.34 -1.02 0.68 0 0 Z " fill="#708074" transform="translate(48,61)"/>
<path d="M0 0 C0.66 0 1.32 0 2 0 C2 3.96 2 7.92 2 12 C1.67 12 1.34 12 1 12 C1 9.36 1 6.72 1 4 C-1.475 5.485 -1.475 5.485 -4 7 C-2.79618552 4.50638429 -1.54571278 2.31856917 0 0 Z " fill="#E1CE9A" transform="translate(40,16)"/>
<path d="M0 0 C4.75 1.875 4.75 1.875 7 3 C7 3.66 7 4.32 7 5 C4.69 5 2.38 5 0 5 C-0.33 4.01 -0.66 3.02 -1 2 C-0.67 1.34 -0.34 0.68 0 0 Z " fill="#E8D6A3" transform="translate(70,10)"/>
<path d="M0 0 C0 0.66 0 1.32 0 2 C1.65 2.33 3.3 2.66 5 3 C2 5 2 5 -1 6 C-1.33 5.34 -1.66 4.68 -2 4 C-2.99 3.34 -3.98 2.68 -5 2 C-2 0 -2 0 0 0 Z " fill="#6E7E71" transform="translate(47,6)"/>
<path d="M0 0 C1.65 0 3.3 0 5 0 C5 1.98 5 3.96 5 6 C4.34 6 3.68 6 3 6 C2.67 5.34 2.34 4.68 2 4 C1.34 4.66 0.68 5.32 0 6 C0 4.02 0 2.04 0 0 Z " fill="#858C75" transform="translate(78,97)"/>
<path d="M0 0 C3 3.625 3 3.625 3 7 C1.35 7 -0.3 7 -2 7 C-1.34 4.69 -0.68 2.38 0 0 Z " fill="#DCC291" transform="translate(62,76)"/>
<path d="M0 0 C2.97 0.33 5.94 0.66 9 1 C9.33 2.32 9.66 3.64 10 5 C9.46375 4.649375 8.9275 4.29875 8.375 3.9375 C5.26725237 2.71075751 3.20568297 3.27143569 0 4 C0 2.68 0 1.36 0 0 Z " fill="#D6A35C" transform="translate(57,39)"/>
<path d="M0 0 C0.99 0 1.98 0 3 0 C3.33 0.99 3.66 1.98 4 3 C0.84493858 3.93619813 -1.96586502 4.1057123 -5.25 4.0625 C-6.14203125 4.05347656 -7.0340625 4.04445313 -7.953125 4.03515625 C-8.62859375 4.02355469 -9.3040625 4.01195312 -10 4 C-10 3.67 -10 3.34 -10 3 C-7.03 3 -4.06 3 -1 3 C-0.67 2.01 -0.34 1.02 0 0 Z " fill="#87917C" transform="translate(65,5)"/>
<path d="M0 0 C0 1.98 0 3.96 0 6 C-1.32 5.67 -2.64 5.34 -4 5 C-4 3.68 -4 2.36 -4 1 C-2 0 -2 0 0 0 Z " fill="#B5AF8A" transform="translate(20,97)"/>
<path d="M0 0 C0.99 0.33 1.98 0.66 3 1 C3.33 2.65 3.66 4.3 4 6 C2.68 6 1.36 6 0 6 C0 4.02 0 2.04 0 0 Z " fill="#A1A081" transform="translate(71,17)"/>
<path d="M0 0 C1.32 0 2.64 0 4 0 C3.49396008 2.16874252 3.00016187 3.99967627 2 6 C1.34 6 0.68 6 0 6 C0 4.02 0 2.04 0 0 Z " fill="#838C76" transform="translate(86,97)"/>
<path d="M0 0 C0.66 0 1.32 0 2 0 C2.33 1.98 2.66 3.96 3 6 C1.68 6 0.36 6 -1 6 C-0.67 4.02 -0.34 2.04 0 0 Z " fill="#7D8775" transform="translate(46,97)"/>
<path d="M0 0 C0.99 0 1.98 0 3 0 C3 1.98 3 3.96 3 6 C2.01 6 1.02 6 0 6 C0 4.02 0 2.04 0 0 Z " fill="#ECDAA6" transform="translate(83,97)"/>
<path d="M0 0 C1.10191901 4.40767604 0.58706842 5.8922935 -1 10 C-1.66 10 -2.32 10 -3 10 C-2.01 6.7 -1.02 3.4 0 0 Z " fill="#BD7852" transform="translate(57,72)"/>
<path d="M0 0 C-0.28875 0.556875 -0.5775 1.11375 -0.875 1.6875 C-2.0413253 4.08494645 -3.0339881 6.51596939 -4 9 C-4.33 9 -4.66 9 -5 9 C-5.36666667 3.5 -5.36666667 3.5 -3.625 1.125 C-2 0 -2 0 0 0 Z " fill="#B56C47" transform="translate(36,69)"/>
</svg>
